<svg xmlns="http://www.w3.org/2000/svg" xmlns:v="https://svgstorm.com"
viewBox = "0 0 600 600"
width="600"
height="600">
<g fill="None" fill-opacity="0.0" stroke="#000000" stroke-opacity="1.00" stroke-width="0.3"><path d="
M 0.00 600.00 
L 600.00 600.00
L 600.00 0.00
L 0.00 0.00
L 0.00 600.00
M 316.00 35.00 
C 384.21 41.60 447.63 68.60 495.25 120.75 C 542.87 172.90 569.48 245.04 565.00 316.00 C 560.52 386.96 530.50 446.53 479.25 495.25 C 428.00 543.96 354.50 568.97 284.00 565.00 C 213.50 561.03 153.82 530.22 104.75 479.25 C 55.69 428.28 31.87 354.67 35.99 284.99 C 40.11 215.31 68.27 151.86 120.75 104.75 C 173.23 57.65 243.79 28.01 316.00 35.00 Z"/>
</g>
<g fill="None" fill-opacity="0.0" stroke="#0B5133" stroke-opacity="1.00" stroke-width="0.3"><path d="
M 316.00 35.00 
C 243.79 28.01 173.23 57.65 120.75 104.75 C 68.27 151.86 40.11 215.31 35.99 284.99 C 31.87 354.67 55.69 428.28 104.75 479.25 C 153.82 530.22 213.50 561.03 284.00 565.00 C 354.50 568.97 428.00 543.96 479.25 495.25 C 530.50 446.53 560.52 386.96 565.00 316.00 C 569.48 245.04 542.87 172.90 495.25 120.75 C 447.63 68.60 384.21 41.60 316.00 35.00
M 317.00 44.00 
C 382.43 44.00 441.79 77.30 487.75 124.25 C 533.71 171.19 558.95 240.64 557.00 307.00 C 555.05 373.36 528.86 434.81 481.25 482.25 C 433.63 529.69 370.96 555.97 304.00 557.00 C 237.04 558.03 171.34 532.98 123.25 486.75 C 75.15 440.53 46.55 380.45 43.00 315.00
C 42.45 304.93 42.31 294.06 43.00 284.00
C 51.70 156.13 158.63 47.94 288.00 43.00
C 297.62 42.63 308.16 43.14 317.00 44.00 Z"/>
</g>
<g fill="None" fill-opacity="0.0" stroke="#EDF6F3" stroke-opacity="1.00" stroke-width="0.3"><path d="
M 43.00 284.00 
C 43.28 293.58 43.41 305.47 43.00 315.00
C 46.55 380.45 75.15 440.53 123.25 486.75 C 171.34 532.98 237.04 558.03 304.00 557.00 C 370.96 555.97 433.63 529.69 481.25 482.25 C 528.86 434.81 555.05 373.36 557.00 307.00 C 558.95 240.64 533.71 171.19 487.75 124.25 C 441.79 77.30 382.43 44.00 317.00 44.00
C 307.37 44.00 296.85 43.52 288.00 43.00
C 158.63 47.94 51.70 156.13 43.00 284.00
M 312.00 52.00 
C 444.60 52.00 549.92 174.71 549.00 304.00 C 548.08 433.29 434.54 547.67 305.00 549.00 C 175.45 550.33 52.00 445.13 52.00 312.00
C 51.27 304.45 51.28 295.48 52.00 288.00
C 52.00 166.17 166.14 52.00 288.00 52.00
C 295.55 51.27 304.52 51.28 312.00 52.00 Z"/>
</g>
<g fill="None" fill-opacity="0.0" stroke="#C3E8D8" stroke-opacity="1.00" stroke-width="0.3"><path d="
M 317.00 44.00 
C 308.16 43.14 297.62 42.63 288.00 43.00
C 296.85 43.52 307.37 44.00 317.00 44.00 Z"/>
</g>
<g fill="None" fill-opacity="0.0" stroke="#719C8A" stroke-opacity="1.00" stroke-width="0.3"><path d="
M 288.00 52.00 
C 296.00 52.00 304.00 52.00 312.00 52.00
C 304.52 51.28 295.55 51.27 288.00 52.00 Z"/>
</g>
<g fill="None" fill-opacity="0.0" stroke="#065534" stroke-opacity="1.00" stroke-width="0.3"><path d="
M 52.00 288.00 
C 52.00 296.00 52.00 304.00 52.00 312.00
C 52.00 445.13 175.45 550.33 305.00 549.00 C 434.54 547.67 548.08 433.29 549.00 304.00 C 549.92 174.71 444.60 52.00 312.00 52.00
C 304.00 52.00 296.00 52.00 288.00 52.00
C 166.14 52.00 52.00 166.17 52.00 288.00
M 314.00 69.00 
C 315.21 69.38 316.76 68.71 318.00 69.00
C 323.50 90.21 330.59 111.05 337.00 132.00
C 330.33 132.00 323.67 132.00 317.00 132.00
C 316.98 127.74 314.02 124.29 314.00 120.00
C 310.67 120.00 307.33 120.00 304.00 120.00
C 301.78 120.00 296.20 118.78 295.00 119.00
C 290.25 120.31 290.10 126.84 289.00 131.00
C 282.33 131.00 275.67 131.00 269.00 131.00
C 276.16 110.18 284.23 89.65 292.00 69.00
C 294.52 66.93 300.58 68.00 304.00 68.00
C 307.64 68.00 311.03 68.06 314.00 69.00
M 408.00 94.00 
C 408.05 99.82 403.82 104.37 403.00 110.00
C 396.86 108.14 391.17 104.95 385.00 103.00
C 382.09 109.64 380.19 116.52 377.08 123.08 C 373.96 129.63 372.72 136.79 369.22 143.22 C 365.73 149.66 355.79 139.41 350.00 140.00
C 353.58 124.46 362.08 110.44 366.00 95.00
C 360.10 93.88 354.66 91.05 349.00 89.00
C 349.84 83.74 353.47 79.35 354.00 74.00
C 372.32 79.50 389.70 88.35 408.00 94.00
M 245.00 76.00 
C 245.00 81.67 245.00 87.33 245.00 93.00
C 237.27 92.38 226.25 93.63 221.75 100.75 C 217.25 107.88 220.06 119.62 227.08 123.92 C 234.11 128.22 244.67 125.98 250.25 119.25 C 255.82 112.52 262.22 125.55 264.00 131.00
C 244.97 147.63 213.08 150.77 202.68 123.32 C 192.28 95.87 217.20 72.60 245.00 76.00
M 461.00 140.00 
C 456.43 143.07 452.89 147.56 448.00 150.00
C 441.60 143.37 443.92 137.75 434.75 132.25 C 425.58 126.75 428.29 138.05 434.25 143.75 C 440.21 149.45 442.06 159.06 439.68 166.68 C 437.29 174.30 427.83 179.05 420.00 178.00 C 412.17 176.95 405.08 173.04 399.30 167.70 C 393.52 162.35 389.28 155.92 386.00 149.00
C 390.48 145.82 393.80 140.60 399.00 139.00
C 403.37 147.56 410.20 159.58 421.00 160.00
C 420.03 147.85 405.27 139.58 408.00 126.00 C 410.73 112.42 427.89 108.58 438.08 114.92 C 448.27 121.27 455.86 129.45 461.00 140.00
M 156.00 128.00 
C 162.41 129.42 169.35 132.33 171.97 139.03 C 174.59 145.73 177.19 154.38 174.00 162.00 C 170.82 169.62 176.06 179.48 175.00 187.00
C 174.53 190.32 170.30 188.50 166.00 189.00 C 161.70 189.50 158.11 189.90 154.00 191.00
C 140.84 194.51 126.84 201.28 116.25 188.75 C 105.66 176.22 108.57 160.82 124.00 157.00
C 126.99 156.26 130.68 155.10 134.00 157.00
C 134.38 157.22 135.00 157.00 135.00 157.00
C 137.58 154.51 130.68 143.84 134.33 139.33 C 137.97 134.81 138.79 128.67 146.00 128.00
C 146.50 127.95 147.00 128.00 147.00 128.00
C 149.75 125.97 153.36 127.41 156.00 128.00
M 401.00 186.00 
C 416.58 187.51 436.55 193.32 450.00 202.00
C 453.74 201.75 458.16 195.87 463.00 198.00 C 467.84 200.13 471.06 200.35 475.00 204.00
C 476.78 195.75 485.40 189.07 494.00 191.00 C 502.60 192.93 507.40 198.33 510.32 206.68 C 513.25 215.02 513.13 224.37 505.25 230.25 C 497.38 236.13 486.51 220.88 486.00 232.00
C 489.00 232.00 492.00 232.00 495.00 232.00
C 495.24 235.56 498.09 238.33 498.00 242.00
C 499.24 244.77 502.04 247.48 502.00 251.00
C 500.71 249.30 497.83 251.01 497.00 249.00
C 493.58 248.19 479.92 243.07 478.00 247.00
C 479.66 267.94 469.40 288.60 451.00 298.00
C 451.49 297.80 452.42 296.82 453.00 297.00
C 455.93 297.91 453.12 305.75 453.00 307.00
C 453.00 383.91 382.46 453.00 306.00 453.00
C 301.91 453.40 297.02 453.39 293.00 453.00
C 285.82 453.00 277.72 452.26 271.00 451.00 C 264.28 449.74 257.58 447.63 251.32 445.68 C 245.06 443.73 239.31 441.23 233.77 438.23 C 228.23 435.23 222.88 433.55 217.92 430.08 C 212.97 426.60 208.21 423.15 203.75 419.25 C 199.29 415.35 194.06 412.34 190.25 407.75 C 186.43 403.16 182.48 398.77 178.75 394.25 C 175.03 389.73 171.95 384.77 169.08 379.92 C 166.20 375.08 162.30 368.70 160.23 363.77 C 158.16 358.84 153.91 350.23 153.22 345.78 C 152.54 341.33 146.54 328.05 150.00 326.00
C 142.02 322.94 136.62 318.21 131.25 310.75 C 125.87 303.30 124.23 294.67 123.00 285.00 C 121.77 275.33 134.15 267.76 137.92 278.08 C 141.70 288.40 137.36 297.60 146.00 304.00
C 145.37 299.61 146.56 294.62 147.00 291.00
C 147.13 284.43 148.19 276.53 149.33 270.33 C 150.47 264.13 152.88 257.85 153.98 251.98 C 155.07 246.11 160.07 241.23 160.77 235.77 C 161.48 230.31 169.37 224.94 169.00 220.00
C 162.79 214.59 156.95 207.27 154.00 200.00
C 161.62 202.56 167.26 209.99 175.00 213.00
C 179.48 202.48 187.82 195.72 196.25 187.25 C 204.68 178.78 213.39 173.16 223.75 166.75 C 234.10 160.34 244.89 157.07 257.01 153.01 C 269.13 148.94 285.27 146.98 299.00 147.00 C 312.73 147.02 328.59 148.62 341.02 151.98 C 353.46 155.33 363.86 161.19 375.08 165.92 C 386.29 170.66 393.11 181.02 401.00 186.00
M 82.00 229.00 
C 101.36 230.92 119.51 242.06 139.00 244.00
C 138.16 250.86 136.37 257.54 134.00 264.00
C 114.04 258.54 94.36 252.08 74.00 248.00
C 74.26 242.39 76.47 237.28 78.00 232.00
C 79.63 228.27 78.26 228.63 82.00 229.00
M 89.00 336.00 
C 87.77 336.65 86.91 339.03 85.00 339.00
C 85.39 336.94 86.09 334.94 87.00 333.00
C 88.61 328.75 90.42 324.56 91.00 320.00
C 85.23 318.28 81.60 312.28 76.00 310.00
C 81.42 307.72 88.82 309.63 95.00 309.00
C 97.08 303.11 98.31 296.35 101.00 291.00
C 104.66 295.68 102.66 303.09 106.32 307.68 C 109.98 312.27 121.89 306.16 126.00 310.00
C 120.35 312.26 116.41 317.71 111.00 320.00
C 110.80 326.53 115.55 331.63 116.00 338.00
C 110.37 335.85 105.49 331.71 100.00 329.00
C 97.08 332.06 93.31 335.15 89.00 336.00
M 505.00 309.00 
C 511.67 309.00 518.33 309.00 525.00 309.00
C 521.34 313.32 513.61 315.52 510.25 320.25 C 506.90 324.99 515.81 333.34 515.00 339.00
C 510.12 335.47 504.18 333.12 500.00 329.00
C 494.08 331.92 489.16 336.82 483.00 339.00
C 485.85 333.16 487.53 326.98 490.00 321.00
C 484.35 317.80 479.84 312.49 474.00 310.00
C 479.75 307.72 487.49 309.63 494.00 309.00
C 494.62 302.72 497.55 297.08 499.00 291.00
C 501.99 296.24 503.53 302.91 505.00 309.00
M 168.00 417.00 
C 161.59 418.00 152.33 422.48 151.01 414.99 C 149.69 407.50 146.84 403.90 141.25 399.75 C 135.67 395.59 127.41 399.39 122.25 403.25 C 117.10 407.12 115.50 415.61 118.77 421.23 C 122.04 426.84 126.11 431.06 132.00 434.00
C 128.32 438.41 124.27 442.39 121.00 447.00
C 98.41 434.39 88.63 402.53 112.70 385.70 C 136.76 368.86 167.45 388.74 168.00 417.00
M 450.00 419.00 
C 454.29 412.99 458.35 404.60 465.00 401.00
C 468.89 405.89 477.35 408.54 472.25 414.25 C 467.14 419.95 464.79 423.66 462.00 430.00
C 469.28 435.12 476.72 426.14 480.25 417.25 C 483.79 408.37 500.12 414.74 495.75 422.75 C 491.38 430.76 484.40 435.94 479.75 443.75 C 475.09 451.55 468.23 461.34 460.92 453.08 C 453.61 444.82 447.14 443.80 439.92 437.08 C 432.69 430.36 425.42 427.09 419.00 420.00
C 428.66 407.26 438.05 394.51 448.00 382.00
C 459.34 384.78 460.42 393.13 453.75 399.75 C 447.07 406.36 438.93 415.68 450.00 419.00
M 190.00 431.00 
C 214.11 435.32 227.38 465.24 211.70 484.70 C 196.02 504.16 165.62 501.48 153.25 478.75 C 140.87 456.03 164.59 426.45 190.00 431.00
M 407.00 432.00 
C 411.27 438.39 416.30 445.49 407.77 448.77 C 399.24 452.05 397.09 456.78 389.00 460.00
C 389.99 462.58 392.04 464.43 393.00 467.00
C 399.77 463.10 406.38 459.14 413.00 455.00
C 415.75 459.65 419.09 464.06 421.00 469.00
C 414.01 471.78 407.89 476.75 401.00 480.00
C 404.49 490.40 412.89 484.39 420.23 478.23 C 427.57 472.07 436.67 474.26 438.00 486.00
C 431.11 489.63 422.10 496.27 415.31 499.31 C 408.51 502.35 398.69 513.90 393.70 506.30 C 388.71 498.71 384.63 491.57 380.23 483.77 C 375.83 475.97 371.00 469.19 366.75 461.25 C 362.49 453.32 377.07 449.72 383.23 445.23 C 389.39 440.74 399.92 435.37 407.00 432.00
M 286.00 470.00 
C 286.36 475.25 283.64 479.72 284.00 485.00
C 273.93 484.98 265.13 479.95 255.00 480.00
C 250.14 491.99 267.27 490.28 275.00 492.00
C 275.03 497.59 272.85 502.60 272.00 508.00
C 264.55 507.19 257.60 504.36 250.00 504.00
C 248.87 511.03 246.59 517.79 246.00 525.00
C 239.21 524.20 232.71 522.26 226.00 521.00
C 231.49 500.90 234.49 480.10 240.00 460.00
C 255.44 462.86 270.83 466.03 286.00 470.00
M 331.00 523.00 
C 331.32 525.13 331.20 527.00 332.00 529.00
C 330.67 529.00 329.33 529.00 328.00 529.00
C 322.83 530.50 317.32 530.93 312.00 532.00
C 309.82 510.81 304.71 490.34 303.00 469.00
C 318.91 467.66 334.34 464.40 350.00 462.00
C 350.17 467.44 352.33 472.40 352.00 478.00
C 342.96 479.12 334.16 481.23 325.00 482.00
C 322.26 497.63 339.61 486.64 348.00 488.00
C 348.34 493.41 349.90 498.51 350.00 504.00
C 342.49 504.23 335.16 505.38 328.00 507.00
C 329.79 512.12 329.32 517.83 331.00 523.00 Z"/>
</g>
<g fill="None" fill-opacity="0.0" stroke="#84AB99" stroke-opacity="1.00" stroke-width="0.3"><path d="
M 292.00 69.00 
C 294.30 67.69 301.28 69.00 304.00 69.00
C 303.96 69.00 304.00 68.00 304.00 68.00
C 300.58 68.00 294.52 66.93 292.00 69.00 Z"/>
</g>
<g fill="None" fill-opacity="0.0" stroke="#4C7362" stroke-opacity="1.00" stroke-width="0.3"><path d="
M 304.00 69.00 
C 307.16 69.00 310.90 68.44 314.00 69.00
C 311.03 68.06 307.64 68.00 304.00 68.00
C 304.00 68.00 303.96 69.00 304.00 69.00 Z"/>
</g>
<g fill="None" fill-opacity="0.0" stroke="#F5FAF8" stroke-opacity="1.00" stroke-width="0.3"><path d="
M 295.00 119.00 
C 298.05 118.16 301.73 119.78 304.00 120.00
C 307.33 120.00 310.67 120.00 314.00 120.00
C 314.02 124.29 316.98 127.74 317.00 132.00
C 323.67 132.00 330.33 132.00 337.00 132.00
C 330.59 111.05 323.50 90.21 318.00 69.00
C 316.76 68.71 315.21 69.38 314.00 69.00
C 310.90 68.44 307.16 69.00 304.00 69.00
C 301.28 69.00 294.30 67.69 292.00 69.00
C 284.23 89.65 276.16 110.18 269.00 131.00
C 275.67 131.00 282.33 131.00 289.00 131.00
C 290.10 126.84 290.25 120.31 295.00 119.00
M 310.00 105.00 
C 305.67 105.00 301.33 105.00 297.00 105.00
C 298.66 97.85 301.79 91.03 304.00 84.00
C 306.90 90.34 308.44 97.93 310.00 105.00 Z"/>
</g>
<g fill="None" fill-opacity="0.0" stroke="#F4F9F7" stroke-opacity="1.00" stroke-width="0.3"><path d="
M 408.00 94.00 
C 389.70 88.35 372.32 79.50 354.00 74.00
C 353.47 79.35 349.84 83.74 349.00 89.00
C 354.66 91.05 360.10 93.88 366.00 95.00
C 362.08 110.44 353.58 124.46 350.00 140.00
C 355.79 139.41 365.73 149.66 369.22 143.22 C 372.72 136.79 373.96 129.63 377.08 123.08 C 380.19 116.52 382.09 109.64 385.00 103.00
C 391.17 104.95 396.86 108.14 403.00 110.00
C 403.82 104.37 408.05 99.82 408.00 94.00 Z"/>
</g>
<g fill="None" fill-opacity="0.0" stroke="#F4FAF7" stroke-opacity="1.00" stroke-width="0.3"><path d="
M 245.00 76.00 
C 217.20 72.60 192.28 95.87 202.68 123.32 C 213.08 150.77 244.97 147.63 264.00 131.00
C 262.22 125.55 255.82 112.52 250.25 119.25 C 244.67 125.98 234.11 128.22 227.08 123.92 C 220.06 119.62 217.25 107.88 221.75 100.75 C 226.25 93.63 237.27 92.38 245.00 93.00
C 245.00 87.33 245.00 81.67 245.00 76.00 Z"/>
</g>
<g fill="None" fill-opacity="0.0" stroke="#1E583D" stroke-opacity="1.00" stroke-width="0.3"><path d="
M 310.00 105.00 
C 308.44 97.93 306.90 90.34 304.00 84.00
C 301.79 91.03 298.66 97.85 297.00 105.00
C 301.33 105.00 305.67 105.00 310.00 105.00 Z"/>
</g>
<g fill="None" fill-opacity="0.0" stroke="#F3F9F7" stroke-opacity="1.00" stroke-width="0.3"><path d="
M 461.00 140.00 
C 455.86 129.45 448.27 121.27 438.08 114.92 C 427.89 108.58 410.73 112.42 408.00 126.00 C 405.27 139.58 420.03 147.85 421.00 160.00
C 410.20 159.58 403.37 147.56 399.00 139.00
C 393.80 140.60 390.48 145.82 386.00 149.00
C 389.28 155.92 393.52 162.35 399.30 167.70 C 405.08 173.04 412.17 176.95 420.00 178.00 C 427.83 179.05 437.29 174.30 439.68 166.68 C 442.06 159.06 440.21 149.45 434.25 143.75 C 428.29 138.05 425.58 126.75 434.75 132.25 C 443.92 137.75 441.60 143.37 448.00 150.00
C 452.89 147.56 456.43 143.07 461.00 140.00 Z"/>
</g>
<g fill="None" fill-opacity="0.0" stroke="#8AAFA0" stroke-opacity="1.00" stroke-width="0.3"><path d="
M 304.00 120.00 
C 301.73 119.78 298.05 118.16 295.00 119.00
C 296.20 118.78 301.78 120.00 304.00 120.00 Z"/>
</g>
<g fill="None" fill-opacity="0.0" stroke="#B1E1CC" stroke-opacity="1.00" stroke-width="0.3"><path d="
M 147.00 128.00 
C 149.95 128.00 153.07 127.70 156.00 128.00
C 153.36 127.41 149.75 125.97 147.00 128.00 Z"/>
</g>
<g fill="None" fill-opacity="0.0" stroke="#D9F0E8" stroke-opacity="1.00" stroke-width="0.3"><path d="
M 135.00 157.00 
C 139.35 159.35 135.31 146.50 136.00 142.00 C 136.69 137.50 142.91 131.53 146.00 128.00
C 138.79 128.67 137.97 134.81 134.33 139.33 C 130.68 143.84 137.58 154.51 135.00 157.00 Z"/>
</g>
<g fill="None" fill-opacity="0.0" stroke="#FAFDFC" stroke-opacity="1.00" stroke-width="0.3"><path d="
M 135.00 157.00 
C 135.00 157.00 134.38 157.22 134.00 157.00
C 132.14 157.97 125.82 156.76 124.00 157.00
C 108.57 160.82 105.66 176.22 116.25 188.75 C 126.84 201.28 140.84 194.51 154.00 191.00
C 156.16 189.75 158.46 188.13 162.01 188.01 C 165.55 187.88 173.26 189.65 175.00 187.00
C 176.06 179.48 170.82 169.62 174.00 162.00 C 177.19 154.38 174.59 145.73 171.97 139.03 C 169.35 132.33 162.41 129.42 156.00 128.00
C 153.07 127.70 149.95 128.00 147.00 128.00
C 147.00 128.00 146.50 127.95 146.00 128.00
C 142.91 131.53 136.69 137.50 136.00 142.00 C 135.31 146.50 139.35 159.35 135.00 157.00 Z"/>
</g>
<g fill="None" fill-opacity="0.0" stroke="#F3F7F6" stroke-opacity="1.00" stroke-width="0.3"><path d="
M 175.00 213.00 
C 187.32 219.30 190.11 208.13 198.75 199.75 C 207.39 191.38 213.79 185.90 223.70 179.70 C 233.61 173.49 242.62 168.97 254.07 165.07 C 265.53 161.18 280.22 158.00 293.00 158.00
C 297.09 157.60 301.98 157.61 306.00 158.00
C 317.75 158.00 330.63 159.67 341.22 163.78 C 351.81 167.89 360.82 168.21 370.08 175.92 C 379.34 183.63 388.98 184.84 401.00 186.00
C 393.11 181.02 386.29 170.66 375.08 165.92 C 363.86 161.19 353.46 155.33 341.02 151.98 C 328.59 148.62 312.73 147.02 299.00 147.00 C 285.27 146.98 269.13 148.94 257.01 153.01 C 244.89 157.07 234.10 160.34 223.75 166.75 C 213.39 173.16 204.68 178.78 196.25 187.25 C 187.82 195.72 179.48 202.48 175.00 213.00 Z"/>
</g>
<g fill="None" fill-opacity="0.0" stroke="#CDEDDD" stroke-opacity="1.00" stroke-width="0.3"><path d="
M 124.00 157.00 
C 125.82 156.76 132.14 157.97 134.00 157.00
C 130.68 155.10 126.99 156.26 124.00 157.00 Z"/>
</g>
<g fill="None" fill-opacity="0.0" stroke="#8A8886" stroke-opacity="1.00" stroke-width="0.3"><path d="
M 293.00 158.00 
C 297.33 158.00 301.67 158.00 306.00 158.00
C 301.98 157.61 297.09 157.60 293.00 158.00 Z"/>
</g>
<g fill="None" fill-opacity="0.0" stroke="#000000" stroke-opacity="1.00" stroke-width="0.3"><path d="
M 175.00 213.00 
C 167.26 209.99 161.62 202.56 154.00 200.00
C 156.95 207.27 162.79 214.59 169.00 220.00
C 171.69 222.34 175.02 224.15 178.00 226.00
C 166.12 246.41 158.54 268.96 158.00 293.00
C 158.00 297.55 158.55 302.48 158.00 307.00
C 157.80 308.64 158.15 310.35 158.00 312.00
C 153.54 311.86 149.36 308.75 147.00 305.00
C 146.79 304.73 146.05 304.35 146.00 304.00
C 137.36 297.60 141.70 288.40 137.92 278.08 C 134.15 267.76 121.77 275.33 123.00 285.00 C 124.23 294.67 125.87 303.30 131.25 310.75 C 136.62 318.21 142.02 322.94 150.00 326.00
C 153.18 327.22 156.54 327.78 160.00 328.00
C 166.57 358.50 182.33 387.06 207.00 408.00
C 208.75 397.82 202.83 384.55 204.01 374.99 C 205.19 365.43 196.43 351.21 204.23 345.23 C 212.03 339.25 223.25 340.03 233.00 338.00 C 242.75 335.97 256.41 335.03 267.00 335.00
C 269.42 334.77 272.91 334.00 276.00 334.00
C 289.53 334.00 302.75 334.03 316.00 333.00 C 329.25 331.97 342.36 333.75 355.07 334.93 C 367.78 336.10 379.35 336.19 391.22 340.78 C 403.10 345.36 394.85 360.58 395.00 372.00 C 395.15 383.42 390.25 398.01 391.00 410.00
C 423.89 382.48 442.03 342.91 443.00 301.00
C 445.95 300.87 448.03 298.12 451.00 298.00
C 469.40 288.60 479.66 267.94 478.00 247.00
C 477.47 240.30 475.17 230.88 472.00 225.00
C 470.26 221.77 466.54 216.92 464.00 214.00
C 460.25 209.70 454.47 204.88 450.00 202.00
C 436.55 193.32 416.58 187.51 401.00 186.00
C 388.98 184.84 379.34 183.63 370.08 175.92 C 360.82 168.21 351.81 167.89 341.22 163.78 C 330.63 159.67 317.75 158.00 306.00 158.00
C 301.67 158.00 297.33 158.00 293.00 158.00
C 280.22 158.00 265.53 161.18 254.07 165.07 C 242.62 168.97 233.61 173.49 223.70 179.70 C 213.79 185.90 207.39 191.38 198.75 199.75 C 190.11 208.13 187.32 219.30 175.00 213.00
M 328.00 180.00 
C 333.77 187.47 333.36 203.09 344.00 205.00 C 354.64 206.90 369.82 205.61 380.01 209.99 C 390.19 214.37 398.31 216.28 407.08 223.92 C 415.86 231.56 427.25 225.82 438.00 224.00
C 436.06 231.97 431.08 239.87 430.02 248.02 C 428.97 256.18 432.41 267.32 430.00 276.00 C 427.60 284.68 416.77 286.69 410.00 282.00
C 406.41 286.76 398.14 289.24 394.70 281.30 C 391.26 273.37 384.71 278.94 391.00 286.00
C 382.66 287.15 375.17 286.40 369.75 280.25 C 364.33 274.09 348.72 281.74 357.00 289.00
C 351.63 291.01 346.34 293.01 342.00 297.00
C 338.46 293.56 338.86 288.65 339.00 284.00
C 333.52 284.58 335.04 296.86 340.00 299.00
C 339.87 301.95 337.12 304.02 337.00 307.00
C 329.23 306.25 318.90 300.44 312.92 296.08 C 306.94 291.73 296.22 283.67 301.00 279.00
C 293.96 277.97 294.62 273.28 299.00 272.00
C 294.47 272.00 291.72 268.46 292.00 264.00
C 294.69 265.37 297.31 266.65 300.00 268.00
C 299.57 263.68 294.33 262.93 291.00 262.00
C 289.63 246.30 292.14 227.05 304.75 216.75 C 317.36 206.46 319.64 192.56 328.00 180.00
M 387.00 290.00 
C 390.08 289.70 394.25 289.00 398.00 289.00
C 406.68 289.00 418.38 288.84 426.02 286.02 C 433.67 283.21 439.18 276.10 440.93 268.93 C 442.67 261.75 443.65 248.59 438.08 242.92 C 432.50 237.26 446.29 224.12 441.22 219.78 C 436.15 215.44 423.06 227.97 416.75 222.25 C 410.45 216.52 402.21 217.71 395.30 212.70 C 388.39 207.68 379.75 206.78 371.33 204.67 C 362.91 202.56 351.31 201.56 342.00 202.00
C 341.76 199.42 339.92 197.38 339.00 195.00
C 348.24 193.30 356.63 191.52 366.02 190.02 C 375.42 188.53 386.78 189.29 396.07 189.93 C 405.36 190.56 415.83 192.07 424.07 194.93 C 432.31 197.78 439.49 199.95 446.25 204.75 C 453.00 209.56 458.86 212.18 463.75 219.25 C 468.65 226.31 471.60 233.72 473.93 242.07 C 476.25 250.43 474.71 261.79 471.69 269.69 C 468.68 277.60 464.64 283.45 457.92 288.92 C 451.19 294.38 444.84 297.39 435.99 298.99 C 427.15 300.60 417.84 303.32 408.00 303.00 C 398.16 302.68 385.75 303.37 376.00 304.00 C 366.24 304.62 357.93 304.40 349.75 309.75 C 341.58 315.11 344.28 327.46 337.00 330.00
C 330.99 299.80 360.95 285.06 387.00 290.00
M 312.00 203.00 
C 303.97 211.63 298.61 223.55 285.98 225.98 C 273.34 228.40 257.30 231.49 244.00 233.00 C 230.70 234.51 211.80 236.92 198.99 233.01 C 186.19 229.10 178.14 223.19 169.00 214.00
C 214.18 242.01 267.01 216.65 312.00 203.00
M 289.00 236.00 
C 287.36 243.73 286.56 251.73 287.00 260.00
C 283.81 259.95 279.65 256.50 277.00 259.00
C 280.08 260.69 284.28 261.40 288.00 262.00
C 287.41 264.91 289.59 267.06 289.00 270.00
C 285.83 270.61 281.35 268.75 279.00 271.00
C 283.58 273.25 292.92 269.62 292.00 278.00
C 290.79 279.69 286.36 278.42 287.00 282.00
C 289.03 280.29 291.96 281.69 294.00 280.00
C 300.97 293.52 315.17 301.50 327.00 309.00
C 322.75 308.36 319.27 310.64 315.00 310.00
C 316.50 299.84 304.91 298.16 298.00 296.00
C 296.28 302.74 312.26 300.56 311.00 309.00 C 309.73 317.44 306.51 321.69 299.00 325.00
C 299.52 321.31 295.45 317.69 292.00 319.00
C 291.73 314.61 296.91 312.50 296.00 308.00
C 291.84 310.69 284.85 318.15 278.31 312.69 C 271.76 307.24 281.37 299.47 280.00 293.00
C 273.65 295.67 270.96 308.47 275.00 315.00
C 267.98 315.17 261.24 316.62 254.00 316.00
C 254.67 308.64 253.96 304.16 249.75 298.25 C 245.53 292.35 239.30 294.65 233.78 291.22 C 228.26 287.79 214.99 297.21 228.00 295.00 C 241.01 292.78 255.28 302.92 250.00 317.00
C 229.84 316.54 211.65 323.92 193.00 329.00
C 176.79 273.73 241.91 236.55 289.00 236.00
M 438.00 264.00 
C 436.75 257.57 432.18 251.55 434.00 245.00
C 438.24 248.44 440.11 258.56 438.00 264.00
M 187.00 312.00 
C 187.00 315.00 187.00 318.00 187.00 321.00
C 178.72 324.56 164.51 326.45 155.98 324.02 C 147.44 321.60 137.87 317.51 134.23 308.77 C 130.59 300.03 121.29 292.05 126.99 280.99 C 132.69 269.94 136.41 289.00 137.93 297.07 C 139.44 305.14 147.83 313.16 156.22 315.78 C 164.62 318.40 178.87 315.94 187.00 312.00
M 371.00 285.00 
C 369.15 288.70 357.92 289.90 358.00 283.00
C 362.38 280.91 367.04 282.81 371.00 285.00
M 424.00 305.00 
C 423.83 307.72 424.61 310.67 423.00 313.00
C 421.01 310.43 416.57 310.15 416.00 307.00
C 418.78 306.74 420.89 304.21 424.00 305.00
M 409.00 309.00 
C 405.16 312.69 401.17 309.53 397.00 309.00
C 403.56 312.79 396.91 315.31 392.00 312.00
C 392.35 318.04 380.13 316.30 374.00 316.00 C 367.87 315.70 358.54 314.16 353.00 312.00
C 358.27 304.87 372.68 319.23 375.00 307.00
C 386.02 308.29 399.57 304.39 409.00 309.00
M 418.00 319.00 
C 419.71 308.38 410.33 320.04 413.00 310.00
C 417.74 309.89 421.28 315.23 418.00 319.00
M 302.00 330.00 
C 296.63 330.52 290.05 331.00 284.00 331.00
C 268.24 331.00 246.57 331.27 232.00 334.00 C 217.42 336.73 196.91 337.14 198.00 355.00
C 181.67 350.12 189.32 332.38 203.02 330.02 C 216.73 327.67 227.35 321.13 242.00 321.00 C 256.65 320.87 272.89 317.23 288.00 318.00
C 284.33 330.28 304.02 332.60 308.75 322.75 C 313.48 312.91 324.21 311.31 335.00 311.00
C 334.94 319.28 334.34 327.40 324.99 326.99 C 315.65 326.58 311.28 331.35 302.00 330.00
M 374.00 319.00 
C 377.33 319.00 380.67 319.00 384.00 319.00
C 390.92 319.00 396.85 316.94 402.00 322.00
C 396.25 317.70 404.04 312.45 408.08 316.92 C 412.12 321.38 417.14 323.79 423.00 321.00
C 423.00 324.33 423.00 327.67 423.00 331.00
C 399.26 321.92 371.66 319.65 346.00 324.00
C 345.39 320.52 347.79 317.95 349.00 315.00
C 357.03 317.42 365.36 318.88 374.00 319.00
M 380.00 326.00 
C 389.52 326.00 399.47 327.53 408.00 330.00
C 388.49 340.18 364.29 331.03 344.00 329.00
C 348.43 325.25 356.00 326.41 362.00 326.00
C 367.67 325.45 374.40 325.46 380.00 326.00
M 401.00 346.00 
C 402.46 341.63 397.68 340.66 396.00 338.00
C 403.40 338.06 414.18 326.68 420.69 334.31 C 427.21 341.93 405.71 344.17 401.00 346.00 Z"/>
</g>
<g fill="None" fill-opacity="0.0" stroke="#FBFBFB" stroke-opacity="1.00" stroke-width="0.3"><path d="
M 328.00 180.00 
C 319.64 192.56 317.36 206.46 304.75 216.75 C 292.14 227.05 289.63 246.30 291.00 262.00
C 294.33 262.93 299.57 263.68 300.00 268.00
C 297.31 266.65 294.69 265.37 292.00 264.00
C 291.72 268.46 294.47 272.00 299.00 272.00
C 294.62 273.28 293.96 277.97 301.00 279.00
C 296.22 283.67 306.94 291.73 312.92 296.08 C 318.90 300.44 329.23 306.25 337.00 307.00
C 337.12 304.02 339.87 301.95 340.00 299.00
C 335.04 296.86 333.52 284.58 339.00 284.00
C 338.86 288.65 338.46 293.56 342.00 297.00
C 346.34 293.01 351.63 291.01 357.00 289.00
C 348.72 281.74 364.33 274.09 369.75 280.25 C 375.17 286.40 382.66 287.15 391.00 286.00
C 384.71 278.94 391.26 273.37 394.70 281.30 C 398.14 289.24 406.41 286.76 410.00 282.00
C 416.77 286.69 427.60 284.68 430.00 276.00 C 432.41 267.32 428.97 256.18 430.02 248.02 C 431.08 239.87 436.06 231.97 438.00 224.00
C 427.25 225.82 415.86 231.56 407.08 223.92 C 398.31 216.28 390.19 214.37 380.01 209.99 C 369.82 205.61 354.64 206.90 344.00 205.00 C 333.36 203.09 333.77 187.47 328.00 180.00
M 315.00 252.00 
C 318.01 252.92 318.00 261.43 321.75 263.25 C 325.51 265.06 329.62 270.13 334.23 265.23 C 338.84 260.33 342.45 265.13 337.75 268.75 C 333.05 272.38 328.81 272.28 323.93 271.07 C 319.04 269.86 317.72 264.73 314.70 262.30 C 311.68 259.88 308.99 250.16 315.00 252.00 Z"/>
</g>
<g fill="None" fill-opacity="0.0" stroke="#C2E6D8" stroke-opacity="1.00" stroke-width="0.3"><path d="
M 154.00 191.00 
C 158.11 189.90 161.70 189.50 166.00 189.00 C 170.30 188.50 174.53 190.32 175.00 187.00
C 173.26 189.65 165.55 187.88 162.01 188.01 C 158.46 188.13 156.16 189.75 154.00 191.00 Z"/>
</g>
<g fill="None" fill-opacity="0.0" stroke="#F9F9F9" stroke-opacity="1.00" stroke-width="0.3"><path d="
M 398.00 289.00 
C 394.92 289.30 390.75 290.00 387.00 290.00
C 360.95 285.06 330.99 299.80 337.00 330.00
C 344.28 327.46 341.58 315.11 349.75 309.75 C 357.93 304.40 366.24 304.62 376.00 304.00 C 385.75 303.37 398.16 302.68 408.00 303.00 C 417.84 303.32 427.15 300.60 435.99 298.99 C 444.84 297.39 451.19 294.38 457.92 288.92 C 464.64 283.45 468.68 277.60 471.69 269.69 C 474.71 261.79 476.25 250.43 473.93 242.07 C 471.60 233.72 468.65 226.31 463.75 219.25 C 458.86 212.18 453.00 209.56 446.25 204.75 C 439.49 199.95 432.31 197.78 424.07 194.93 C 415.83 192.07 405.36 190.56 396.07 189.93 C 386.78 189.29 375.42 188.53 366.02 190.02 C 356.63 191.52 348.24 193.30 339.00 195.00
C 339.92 197.38 341.76 199.42 342.00 202.00
C 351.31 201.56 362.91 202.56 371.33 204.67 C 379.75 206.78 388.39 207.68 395.30 212.70 C 402.21 217.71 410.45 216.52 416.75 222.25 C 423.06 227.97 436.15 215.44 441.22 219.78 C 446.29 224.12 432.50 237.26 438.08 242.92 C 443.65 248.59 442.67 261.75 440.93 268.93 C 439.18 276.10 433.67 283.21 426.02 286.02 C 418.38 288.84 406.68 289.00 398.00 289.00 Z"/>
</g>
<g fill="None" fill-opacity="0.0" stroke="#F2F7F5" stroke-opacity="1.00" stroke-width="0.3"><path d="
M 450.00 202.00 
C 454.47 204.88 460.25 209.70 464.00 214.00
C 466.46 214.62 470.25 211.96 473.00 214.00
C 473.04 217.78 473.28 221.55 472.00 225.00
C 475.17 230.88 477.47 240.30 478.00 247.00
C 479.92 243.07 493.58 248.19 497.00 249.00
C 499.30 248.14 498.39 244.26 498.00 242.00
C 498.09 238.33 495.24 235.56 495.00 232.00
C 492.00 232.00 489.00 232.00 486.00 232.00
C 486.51 220.88 497.38 236.13 505.25 230.25 C 513.13 224.37 513.25 215.02 510.32 206.68 C 507.40 198.33 502.60 192.93 494.00 191.00 C 485.40 189.07 476.78 195.75 475.00 204.00
C 471.06 200.35 467.84 200.13 463.00 198.00 C 458.16 195.87 453.74 201.75 450.00 202.00
M 496.00 206.00 
C 502.58 208.16 497.54 219.67 491.00 217.00 C 484.46 214.33 489.76 203.95 496.00 206.00 Z"/>
</g>
<g fill="None" fill-opacity="0.0" stroke="#F4F4F4" stroke-opacity="1.00" stroke-width="0.3"><path d="
M 312.00 203.00 
C 267.01 216.65 214.18 242.01 169.00 214.00
C 178.14 223.19 186.19 229.10 198.99 233.01 C 211.80 236.92 230.70 234.51 244.00 233.00 C 257.30 231.49 273.34 228.40 285.98 225.98 C 298.61 223.55 303.97 211.63 312.00 203.00 Z"/>
</g>
<g fill="None" fill-opacity="0.0" stroke="#165338" stroke-opacity="1.00" stroke-width="0.3"><path d="
M 496.00 206.00 
C 489.76 203.95 484.46 214.33 491.00 217.00 C 497.54 219.67 502.58 208.16 496.00 206.00 Z"/>
</g>
<g fill="None" fill-opacity="0.0" stroke="#164D35" stroke-opacity="1.00" stroke-width="0.3"><path d="
M 464.00 214.00 
C 466.54 216.92 470.26 221.77 472.00 225.00
C 473.28 221.55 473.04 217.78 473.00 214.00
C 470.25 211.96 466.46 214.62 464.00 214.00 Z"/>
</g>
<g fill="None" fill-opacity="0.0" stroke="#F3F7F5" stroke-opacity="1.00" stroke-width="0.3"><path d="
M 147.00 291.00 
C 146.92 295.06 148.23 301.16 147.00 305.00
C 149.36 308.75 153.54 311.86 158.00 312.00
C 158.15 310.35 157.80 308.64 158.00 307.00
C 158.09 303.13 157.62 296.98 158.00 293.00
C 158.54 268.96 166.12 246.41 178.00 226.00
C 175.02 224.15 171.69 222.34 169.00 220.00
C 169.37 224.94 161.48 230.31 160.77 235.77 C 160.07 241.23 155.07 246.11 153.98 251.98 C 152.88 257.85 150.47 264.13 149.33 270.33 C 148.19 276.53 147.13 284.43 147.00 291.00 Z"/>
</g>
<g fill="None" fill-opacity="0.0" stroke="#A8D3C1" stroke-opacity="1.00" stroke-width="0.3"><path d="
M 78.00 232.00 
C 78.50 231.27 81.13 229.18 82.00 229.00
C 78.26 228.63 79.63 228.27 78.00 232.00 Z"/>
</g>
<g fill="None" fill-opacity="0.0" stroke="#F4FAF8" stroke-opacity="1.00" stroke-width="0.3"><path d="
M 78.00 232.00 
C 76.47 237.28 74.26 242.39 74.00 248.00
C 94.36 252.08 114.04 258.54 134.00 264.00
C 136.37 257.54 138.16 250.86 139.00 244.00
C 119.51 242.06 101.36 230.92 82.00 229.00
C 81.13 229.18 78.50 231.27 78.00 232.00 Z"/>
</g>
<g fill="None" fill-opacity="0.0" stroke="#FAFAFA" stroke-opacity="1.00" stroke-width="0.3"><path d="
M 289.00 236.00 
C 241.91 236.55 176.79 273.73 193.00 329.00
C 211.65 323.92 229.84 316.54 250.00 317.00
C 255.28 302.92 241.01 292.78 228.00 295.00 C 214.99 297.21 228.26 287.79 233.78 291.22 C 239.30 294.65 245.53 292.35 249.75 298.25 C 253.96 304.16 254.67 308.64 254.00 316.00
C 261.24 316.62 267.98 315.17 275.00 315.00
C 270.96 308.47 273.65 295.67 280.00 293.00
C 281.37 299.47 271.76 307.24 278.31 312.69 C 284.85 318.15 291.84 310.69 296.00 308.00
C 296.91 312.50 291.73 314.61 292.00 319.00
C 295.45 317.69 299.52 321.31 299.00 325.00
C 306.51 321.69 309.73 317.44 311.00 309.00 C 312.26 300.56 296.28 302.74 298.00 296.00
C 304.91 298.16 316.50 299.84 315.00 310.00
C 319.27 310.64 322.75 308.36 327.00 309.00
C 315.17 301.50 300.97 293.52 294.00 280.00
C 291.96 281.69 289.03 280.29 287.00 282.00
C 286.36 278.42 290.79 279.69 292.00 278.00
C 292.92 269.62 283.58 273.25 279.00 271.00
C 281.35 268.75 285.83 270.61 289.00 270.00
C 289.59 267.06 287.41 264.91 288.00 262.00
C 284.28 261.40 280.08 260.69 277.00 259.00
C 279.65 256.50 283.81 259.95 287.00 260.00
C 286.56 251.73 287.36 243.73 289.00 236.00 Z"/>
</g>
<g fill="None" fill-opacity="0.0" stroke="#CAEADC" stroke-opacity="1.00" stroke-width="0.3"><path d="
M 497.00 249.00 
C 497.83 251.01 500.71 249.30 502.00 251.00
C 502.04 247.48 499.24 244.77 498.00 242.00
C 498.39 244.26 499.30 248.14 497.00 249.00 Z"/>
</g>
<g fill="None" fill-opacity="0.0" stroke="#D1D1D1" stroke-opacity="1.00" stroke-width="0.3"><path d="
M 438.00 264.00 
C 440.11 258.56 438.24 248.44 434.00 245.00
C 432.18 251.55 436.75 257.57 438.00 264.00 Z"/>
</g>
<g fill="None" fill-opacity="0.0" stroke="#060606" stroke-opacity="1.00" stroke-width="0.3"><path d="
M 315.00 252.00 
C 308.99 250.16 311.68 259.88 314.70 262.30 C 317.72 264.73 319.04 269.86 323.93 271.07 C 328.81 272.28 333.05 272.38 337.75 268.75 C 342.45 265.13 338.84 260.33 334.23 265.23 C 329.62 270.13 325.51 265.06 321.75 263.25 C 318.00 261.43 318.01 252.92 315.00 252.00 Z"/>
</g>
<g fill="None" fill-opacity="0.0" stroke="#F4F3F4" stroke-opacity="1.00" stroke-width="0.3"><path d="
M 187.00 312.00 
C 178.87 315.94 164.62 318.40 156.22 315.78 C 147.83 313.16 139.44 305.14 137.93 297.07 C 136.41 289.00 132.69 269.94 126.99 280.99 C 121.29 292.05 130.59 300.03 134.23 308.77 C 137.87 317.51 147.44 321.60 155.98 324.02 C 164.51 326.45 178.72 324.56 187.00 321.00
C 187.00 318.00 187.00 315.00 187.00 312.00 Z"/>
</g>
<g fill="None" fill-opacity="0.0" stroke="#E2E2E2" stroke-opacity="1.00" stroke-width="0.3"><path d="
M 371.00 285.00 
C 367.04 282.81 362.38 280.91 358.00 283.00
C 357.92 289.90 369.15 288.70 371.00 285.00 Z"/>
</g>
<g fill="None" fill-opacity="0.0" stroke="#C8EEDE" stroke-opacity="1.00" stroke-width="0.3"><path d="
M 43.00 315.00 
C 43.41 305.47 43.28 293.58 43.00 284.00
C 42.31 294.06 42.45 304.93 43.00 315.00 Z"/>
</g>
<g fill="None" fill-opacity="0.0" stroke="#6C9584" stroke-opacity="1.00" stroke-width="0.3"><path d="
M 52.00 312.00 
C 52.00 304.00 52.00 296.00 52.00 288.00
C 51.28 295.48 51.27 304.45 52.00 312.00 Z"/>
</g>
<g fill="None" fill-opacity="0.0" stroke="#636363" stroke-opacity="1.00" stroke-width="0.3"><path d="
M 387.00 290.00 
C 390.75 290.00 394.92 289.30 398.00 289.00
C 394.25 289.00 390.08 289.70 387.00 290.00 Z"/>
</g>
<g fill="None" fill-opacity="0.0" stroke="#F0F9F6" stroke-opacity="1.00" stroke-width="0.3"><path d="
M 87.00 333.00 
C 87.14 333.74 89.05 334.84 89.00 336.00
C 93.31 335.15 97.08 332.06 100.00 329.00
C 105.49 331.71 110.37 335.85 116.00 338.00
C 115.55 331.63 110.80 326.53 111.00 320.00
C 116.41 317.71 120.35 312.26 126.00 310.00
C 121.89 306.16 109.98 312.27 106.32 307.68 C 102.66 303.09 104.66 295.68 101.00 291.00
C 98.31 296.35 97.08 303.11 95.00 309.00
C 88.82 309.63 81.42 307.72 76.00 310.00
C 81.60 312.28 85.23 318.28 91.00 320.00
C 90.42 324.56 88.61 328.75 87.00 333.00 Z"/>
</g>
<g fill="None" fill-opacity="0.0" stroke="#608673" stroke-opacity="1.00" stroke-width="0.3"><path d="
M 146.00 304.00 
C 146.05 304.35 146.79 304.73 147.00 305.00
C 148.23 301.16 146.92 295.06 147.00 291.00
C 146.56 294.62 145.37 299.61 146.00 304.00 Z"/>
</g>
<g fill="None" fill-opacity="0.0" stroke="#EFF9F5" stroke-opacity="1.00" stroke-width="0.3"><path d="
M 505.00 309.00 
C 503.53 302.91 501.99 296.24 499.00 291.00
C 497.55 297.08 494.62 302.72 494.00 309.00
C 487.49 309.63 479.75 307.72 474.00 310.00
C 479.84 312.49 484.35 317.80 490.00 321.00
C 487.53 326.98 485.85 333.16 483.00 339.00
C 489.16 336.82 494.08 331.92 500.00 329.00
C 504.18 333.12 510.12 335.47 515.00 339.00
C 515.81 333.34 506.90 324.99 510.25 320.25 C 513.61 315.52 521.34 313.32 525.00 309.00
C 518.33 309.00 511.67 309.00 505.00 309.00 Z"/>
</g>
<g fill="None" fill-opacity="0.0" stroke="#7F7C7B" stroke-opacity="1.00" stroke-width="0.3"><path d="
M 158.00 307.00 
C 158.55 302.48 158.00 297.55 158.00 293.00
C 157.62 296.98 158.09 303.13 158.00 307.00 Z"/>
</g>
<g fill="None" fill-opacity="0.0" stroke="#F8FBFA" stroke-opacity="1.00" stroke-width="0.3"><path d="
M 451.00 298.00 
C 448.03 298.12 445.95 300.87 443.00 301.00
C 442.03 342.91 423.89 382.48 391.00 410.00
C 390.25 398.01 395.15 383.42 395.00 372.00 C 394.85 360.58 403.10 345.36 391.22 340.78 C 379.35 336.19 367.78 336.10 355.07 334.93 C 342.36 333.75 329.25 331.97 316.00 333.00 C 302.75 334.03 289.53 334.00 276.00 334.00
C 273.58 334.23 270.10 335.00 267.00 335.00
C 256.41 335.03 242.75 335.97 233.00 338.00 C 223.25 340.03 212.03 339.25 204.23 345.23 C 196.43 351.21 205.19 365.43 204.01 374.99 C 202.83 384.55 208.75 397.82 207.00 408.00
C 182.33 387.06 166.57 358.50 160.00 328.00
C 156.54 327.78 153.18 327.22 150.00 326.00
C 146.54 328.05 152.54 341.33 153.22 345.78 C 153.91 350.23 158.16 358.84 160.23 363.77 C 162.30 368.70 166.20 375.08 169.08 379.92 C 171.95 384.77 175.03 389.73 178.75 394.25 C 182.48 398.77 186.43 403.16 190.25 407.75 C 194.06 412.34 199.29 415.35 203.75 419.25 C 208.21 423.15 212.97 426.60 217.92 430.08 C 222.88 433.55 228.23 435.23 233.77 438.23 C 239.31 441.23 245.06 443.73 251.32 445.68 C 257.58 447.63 264.28 449.74 271.00 451.00 C 277.72 452.26 285.82 453.00 293.00 453.00
C 297.33 453.00 301.67 453.00 306.00 453.00
C 382.46 453.00 453.00 383.91 453.00 307.00
C 453.00 305.34 454.04 298.10 453.00 297.00
C 452.42 296.82 451.49 297.80 451.00 298.00
M 378.00 420.00 
C 372.68 421.77 368.74 426.61 363.00 427.00
C 359.56 418.66 353.21 413.51 345.92 408.08 C 338.63 402.66 330.48 397.83 321.32 395.68 C 312.16 393.53 297.42 391.55 288.00 394.00 C 278.58 396.45 269.97 398.48 262.25 404.25 C 254.54 410.03 248.63 413.26 243.08 422.08 C 237.53 430.90 228.71 424.03 221.00 419.00
C 252.74 360.25 347.72 360.49 378.00 420.00
M 343.00 436.00 
C 341.63 436.56 339.70 436.87 339.00 437.00
C 328.98 438.94 319.67 442.00 309.00 442.00
C 303.65 442.52 297.28 442.51 292.00 442.00
C 287.71 442.00 284.05 441.64 280.00 441.00
C 269.56 441.18 261.06 441.11 253.00 435.00
C 251.80 434.09 250.26 433.80 249.00 433.00
C 270.03 394.56 331.52 394.46 354.00 432.00
C 350.45 433.73 346.56 434.27 343.00 436.00 Z"/>
</g>
<g fill="None" fill-opacity="0.0" stroke="#6F9D89" stroke-opacity="1.00" stroke-width="0.3"><path d="
M 453.00 307.00 
C 453.12 305.75 455.93 297.91 453.00 297.00
C 454.04 298.10 453.00 305.34 453.00 307.00 Z"/>
</g>
<g fill="None" fill-opacity="0.0" stroke="#E8E8E8" stroke-opacity="1.00" stroke-width="0.3"><path d="
M 424.00 305.00 
C 420.89 304.21 418.78 306.74 416.00 307.00
C 416.57 310.15 421.01 310.43 423.00 313.00
C 424.61 310.67 423.83 307.72 424.00 305.00 Z"/>
</g>
<g fill="None" fill-opacity="0.0" stroke="#EDEDED" stroke-opacity="1.00" stroke-width="0.3"><path d="
M 409.00 309.00 
C 399.57 304.39 386.02 308.29 375.00 307.00
C 372.68 319.23 358.27 304.87 353.00 312.00
C 358.54 314.16 367.87 315.70 374.00 316.00 C 380.13 316.30 392.35 318.04 392.00 312.00
C 396.91 315.31 403.56 312.79 397.00 309.00
C 401.17 309.53 405.16 312.69 409.00 309.00 Z"/>
</g>
<g fill="None" fill-opacity="0.0" stroke="#DADADA" stroke-opacity="1.00" stroke-width="0.3"><path d="
M 418.00 319.00 
C 421.28 315.23 417.74 309.89 413.00 310.00
C 410.33 320.04 419.71 308.38 418.00 319.00 Z"/>
</g>
<g fill="None" fill-opacity="0.0" stroke="#F5F5F5" stroke-opacity="1.00" stroke-width="0.3"><path d="
M 284.00 331.00 
C 289.37 330.48 295.95 330.00 302.00 330.00
C 311.28 331.35 315.65 326.58 324.99 326.99 C 334.34 327.40 334.94 319.28 335.00 311.00
C 324.21 311.31 313.48 312.91 308.75 322.75 C 304.02 332.60 284.33 330.28 288.00 318.00
C 272.89 317.23 256.65 320.87 242.00 321.00 C 227.35 321.13 216.73 327.67 203.02 330.02 C 189.32 332.38 181.67 350.12 198.00 355.00
C 196.91 337.14 217.42 336.73 232.00 334.00 C 246.57 331.27 268.24 331.00 284.00 331.00 Z"/>
</g>
<g fill="None" fill-opacity="0.0" stroke="#EBEBEB" stroke-opacity="1.00" stroke-width="0.3"><path d="
M 384.00 319.00 
C 380.86 319.30 377.08 319.30 374.00 319.00
C 365.36 318.88 357.03 317.42 349.00 315.00
C 347.79 317.95 345.39 320.52 346.00 324.00
C 371.66 319.65 399.26 321.92 423.00 331.00
C 423.00 327.67 423.00 324.33 423.00 321.00
C 417.14 323.79 412.12 321.38 408.08 316.92 C 404.04 312.45 396.25 317.70 402.00 322.00
C 396.85 316.94 390.92 319.00 384.00 319.00 Z"/>
</g>
<g fill="None" fill-opacity="0.0" stroke="#737373" stroke-opacity="1.00" stroke-width="0.3"><path d="
M 384.00 319.00 
C 380.67 319.00 377.33 319.00 374.00 319.00
C 377.08 319.30 380.86 319.30 384.00 319.00 Z"/>
</g>
<g fill="None" fill-opacity="0.0" stroke="#818181" stroke-opacity="1.00" stroke-width="0.3"><path d="
M 362.00 326.00 
C 368.00 326.00 374.00 326.00 380.00 326.00
C 374.40 325.46 367.67 325.45 362.00 326.00 Z"/>
</g>
<g fill="None" fill-opacity="0.0" stroke="#F1F1F1" stroke-opacity="1.00" stroke-width="0.3"><path d="
M 380.00 326.00 
C 374.00 326.00 368.00 326.00 362.00 326.00
C 356.00 326.41 348.43 325.25 344.00 329.00
C 364.29 331.03 388.49 340.18 408.00 330.00
C 399.47 327.53 389.52 326.00 380.00 326.00 Z"/>
</g>
<g fill="None" fill-opacity="0.0" stroke="#888888" stroke-opacity="1.00" stroke-width="0.3"><path d="
M 284.00 331.00 
C 290.05 331.00 296.63 330.52 302.00 330.00
C 295.95 330.00 289.37 330.48 284.00 331.00 Z"/>
</g>
<g fill="None" fill-opacity="0.0" stroke="#F0F0F0" stroke-opacity="1.00" stroke-width="0.3"><path d="
M 401.00 346.00 
C 405.71 344.17 427.21 341.93 420.69 334.31 C 414.18 326.68 403.40 338.06 396.00 338.00
C 397.68 340.66 402.46 341.63 401.00 346.00 Z"/>
</g>
<g fill="None" fill-opacity="0.0" stroke="#BAE5D5" stroke-opacity="1.00" stroke-width="0.3"><path d="
M 89.00 336.00 
C 89.05 334.84 87.14 333.74 87.00 333.00
C 86.09 334.94 85.39 336.94 85.00 339.00
C 86.91 339.03 87.77 336.65 89.00 336.00 Z"/>
</g>
<g fill="None" fill-opacity="0.0" stroke="#7A7A7A" stroke-opacity="1.00" stroke-width="0.3"><path d="
M 267.00 335.00 
C 270.10 335.00 273.58 334.23 276.00 334.00
C 272.91 334.00 269.42 334.77 267.00 335.00 Z"/>
</g>
<g fill="None" fill-opacity="0.0" stroke="#095534" stroke-opacity="1.00" stroke-width="0.3"><path d="
M 378.00 420.00 
C 347.72 360.49 252.74 360.25 221.00 419.00
C 228.71 424.03 237.53 430.90 243.08 422.08 C 248.63 413.26 254.54 410.03 262.25 404.25 C 269.97 398.48 278.58 396.45 288.00 394.00 C 297.42 391.55 312.16 393.53 321.32 395.68 C 330.48 397.83 338.63 402.66 345.92 408.08 C 353.21 413.51 359.56 418.66 363.00 427.00
C 368.74 426.61 372.68 421.77 378.00 420.00 Z"/>
</g>
<g fill="None" fill-opacity="0.0" stroke="#F3F9F7" stroke-opacity="1.00" stroke-width="0.3"><path d="
M 168.00 417.00 
C 167.45 388.74 136.76 368.86 112.70 385.70 C 88.63 402.53 98.41 434.39 121.00 447.00
C 124.27 442.39 128.32 438.41 132.00 434.00
C 126.11 431.06 122.04 426.84 118.77 421.23 C 115.50 415.61 117.10 407.12 122.25 403.25 C 127.41 399.39 135.67 395.59 141.25 399.75 C 146.84 403.90 149.69 407.50 151.01 414.99 C 152.33 422.48 161.59 418.00 168.00 417.00 Z"/>
</g>
<g fill="None" fill-opacity="0.0" stroke="#F3F9F7" stroke-opacity="1.00" stroke-width="0.3"><path d="
M 450.00 419.00 
C 438.93 415.68 447.07 406.36 453.75 399.75 C 460.42 393.13 459.34 384.78 448.00 382.00
C 438.05 394.51 428.66 407.26 419.00 420.00
C 425.42 427.09 432.69 430.36 439.92 437.08 C 447.14 443.80 453.61 444.82 460.92 453.08 C 468.23 461.34 475.09 451.55 479.75 443.75 C 484.40 435.94 491.38 430.76 495.75 422.75 C 500.12 414.74 483.79 408.37 480.25 417.25 C 476.72 426.14 469.28 435.12 462.00 430.00
C 464.79 423.66 467.14 419.95 472.25 414.25 C 477.35 408.54 468.89 405.89 465.00 401.00
C 458.35 404.60 454.29 412.99 450.00 419.00 Z"/>
</g>
<g fill="None" fill-opacity="0.0" stroke="#0D5535" stroke-opacity="1.00" stroke-width="0.3"><path d="
M 253.00 435.00 
C 255.11 435.90 258.04 435.36 260.00 437.00
C 278.23 408.83 323.76 409.22 343.00 436.00
C 346.56 434.27 350.45 433.73 354.00 432.00
C 331.52 394.46 270.03 394.56 249.00 433.00
C 250.26 433.80 251.80 434.09 253.00 435.00 Z"/>
</g>
<g fill="None" fill-opacity="0.0" stroke="#D1EBE1" stroke-opacity="1.00" stroke-width="0.3"><path d="
M 253.00 435.00 
C 261.06 441.11 269.56 441.18 280.00 441.00
C 274.26 440.09 268.64 439.35 263.00 438.00
C 270.60 427.47 282.82 419.60 296.00 419.00
C 299.74 418.39 303.33 418.40 307.00 419.00
C 314.00 419.38 319.86 422.64 326.08 424.92 C 332.29 427.21 334.52 434.26 339.00 437.00
C 339.70 436.87 341.63 436.56 343.00 436.00
C 323.76 409.22 278.23 408.83 260.00 437.00
C 258.04 435.36 255.11 435.90 253.00 435.00 Z"/>
</g>
<g fill="None" fill-opacity="0.0" stroke="#6B9583" stroke-opacity="1.00" stroke-width="0.3"><path d="
M 296.00 419.00 
C 299.59 418.81 303.41 418.81 307.00 419.00
C 303.33 418.40 299.74 418.39 296.00 419.00 Z"/>
</g>
<g fill="None" fill-opacity="0.0" stroke="#085534" stroke-opacity="1.00" stroke-width="0.3"><path d="
M 280.00 441.00 
C 284.05 441.64 287.71 442.00 292.00 442.00
C 297.67 442.00 303.33 442.00 309.00 442.00
C 319.67 442.00 328.98 438.94 339.00 437.00
C 334.52 434.26 332.29 427.21 326.08 424.92 C 319.86 422.64 314.00 419.38 307.00 419.00
C 303.41 418.81 299.59 418.81 296.00 419.00
C 282.82 419.60 270.60 427.47 263.00 438.00
C 268.64 439.35 274.26 440.09 280.00 441.00 Z"/>
</g>
<g fill="None" fill-opacity="0.0" stroke="#F5FAF8" stroke-opacity="1.00" stroke-width="0.3"><path d="
M 190.00 431.00 
C 164.59 426.45 140.87 456.03 153.25 478.75 C 165.62 501.48 196.02 504.16 211.70 484.70 C 227.38 465.24 214.11 435.32 190.00 431.00
M 191.00 448.00 
C 208.84 452.84 196.17 486.46 178.33 480.67 C 160.49 474.88 173.26 443.19 191.00 448.00 Z"/>
</g>
<g fill="None" fill-opacity="0.0" stroke="#F3F9F7" stroke-opacity="1.00" stroke-width="0.3"><path d="
M 407.00 432.00 
C 399.92 435.37 389.39 440.74 383.23 445.23 C 377.07 449.72 362.49 453.32 366.75 461.25 C 371.00 469.19 375.83 475.97 380.23 483.77 C 384.63 491.57 388.71 498.71 393.70 506.30 C 398.69 513.90 408.51 502.35 415.31 499.31 C 422.10 496.27 431.11 489.63 438.00 486.00
C 436.67 474.26 427.57 472.07 420.23 478.23 C 412.89 484.39 404.49 490.40 401.00 480.00
C 407.89 476.75 414.01 471.78 421.00 469.00
C 419.09 464.06 415.75 459.65 413.00 455.00
C 406.38 459.14 399.77 463.10 393.00 467.00
C 392.04 464.43 389.99 462.58 389.00 460.00
C 397.09 456.78 399.24 452.05 407.77 448.77 C 416.30 445.49 411.27 438.39 407.00 432.00 Z"/>
</g>
<g fill="None" fill-opacity="0.0" stroke="#719786" stroke-opacity="1.00" stroke-width="0.3"><path d="
M 309.00 442.00 
C 303.33 442.00 297.67 442.00 292.00 442.00
C 297.28 442.51 303.65 442.52 309.00 442.00 Z"/>
</g>
<g fill="None" fill-opacity="0.0" stroke="#0A5435" stroke-opacity="1.00" stroke-width="0.3"><path d="
M 191.00 448.00 
C 173.26 443.19 160.49 474.88 178.33 480.67 C 196.17 486.46 208.84 452.84 191.00 448.00 Z"/>
</g>
<g fill="None" fill-opacity="0.0" stroke="#759F8A" stroke-opacity="1.00" stroke-width="0.3"><path d="
M 306.00 453.00 
C 301.67 453.00 297.33 453.00 293.00 453.00
C 297.02 453.39 301.91 453.40 306.00 453.00 Z"/>
</g>
<g fill="None" fill-opacity="0.0" stroke="#F4FAF8" stroke-opacity="1.00" stroke-width="0.3"><path d="
M 286.00 470.00 
C 270.83 466.03 255.44 462.86 240.00 460.00
C 234.49 480.10 231.49 500.90 226.00 521.00
C 232.71 522.26 239.21 524.20 246.00 525.00
C 246.59 517.79 248.87 511.03 250.00 504.00
C 257.60 504.36 264.55 507.19 272.00 508.00
C 272.85 502.60 275.03 497.59 275.00 492.00
C 267.27 490.28 250.14 491.99 255.00 480.00
C 265.13 479.95 273.93 484.98 284.00 485.00
C 283.64 479.72 286.36 475.25 286.00 470.00 Z"/>
</g>
<g fill="None" fill-opacity="0.0" stroke="#F4FAF8" stroke-opacity="1.00" stroke-width="0.3"><path d="
M 328.00 529.00 
C 329.53 527.95 330.87 524.61 331.00 523.00
C 329.32 517.83 329.79 512.12 328.00 507.00
C 335.16 505.38 342.49 504.23 350.00 504.00
C 349.90 498.51 348.34 493.41 348.00 488.00
C 339.61 486.64 322.26 497.63 325.00 482.00
C 334.16 481.23 342.96 479.12 352.00 478.00
C 352.33 472.40 350.17 467.44 350.00 462.00
C 334.34 464.40 318.91 467.66 303.00 469.00
C 304.71 490.34 309.82 510.81 312.00 532.00
C 317.32 530.93 322.83 530.50 328.00 529.00 Z"/>
</g>
<g fill="None" fill-opacity="0.0" stroke="#BDE4D4" stroke-opacity="1.00" stroke-width="0.3"><path d="
M 328.00 529.00 
C 329.33 529.00 330.67 529.00 332.00 529.00
C 331.20 527.00 331.32 525.13 331.00 523.00
C 330.87 524.61 329.53 527.95 328.00 529.00 Z"/>
</g>
<g fill="#000000" fill-opacity="1.00" stroke="None">
<path d="
M 0.00 600.00 
L 600.00 600.00
L 600.00 0.00
L 0.00 0.00
L 0.00 600.00
M 316.00 35.00 
C 384.21 41.60 447.63 68.60 495.25 120.75 C 542.87 172.90 569.48 245.04 565.00 316.00 C 560.52 386.96 530.50 446.53 479.25 495.25 C 428.00 543.96 354.50 568.97 284.00 565.00 C 213.50 561.03 153.82 530.22 104.75 479.25 C 55.69 428.28 31.87 354.67 35.99 284.99 C 40.11 215.31 68.27 151.86 120.75 104.75 C 173.23 57.65 243.79 28.01 316.00 35.00 Z"/>
</g>
<g fill="#0B5133" fill-opacity="1.00" stroke="None">
<path d="
M 316.00 35.00 
C 243.79 28.01 173.23 57.65 120.75 104.75 C 68.27 151.86 40.11 215.31 35.99 284.99 C 31.87 354.67 55.69 428.28 104.75 479.25 C 153.82 530.22 213.50 561.03 284.00 565.00 C 354.50 568.97 428.00 543.96 479.25 495.25 C 530.50 446.53 560.52 386.96 565.00 316.00 C 569.48 245.04 542.87 172.90 495.25 120.75 C 447.63 68.60 384.21 41.60 316.00 35.00
M 317.00 44.00 
C 382.43 44.00 441.79 77.30 487.75 124.25 C 533.71 171.19 558.95 240.64 557.00 307.00 C 555.05 373.36 528.86 434.81 481.25 482.25 C 433.63 529.69 370.96 555.97 304.00 557.00 C 237.04 558.03 171.34 532.98 123.25 486.75 C 75.15 440.53 46.55 380.45 43.00 315.00
C 42.45 304.93 42.31 294.06 43.00 284.00
C 51.70 156.13 158.63 47.94 288.00 43.00
C 297.62 42.63 308.16 43.14 317.00 44.00 Z"/>
</g>
<g fill="#EDF6F3" fill-opacity="1.00" stroke="None">
<path d="
M 43.00 284.00 
C 43.28 293.58 43.41 305.47 43.00 315.00
C 46.55 380.45 75.15 440.53 123.25 486.75 C 171.34 532.98 237.04 558.03 304.00 557.00 C 370.96 555.97 433.63 529.69 481.25 482.25 C 528.86 434.81 555.05 373.36 557.00 307.00 C 558.95 240.64 533.71 171.19 487.75 124.25 C 441.79 77.30 382.43 44.00 317.00 44.00
C 307.37 44.00 296.85 43.52 288.00 43.00
C 158.63 47.94 51.70 156.13 43.00 284.00
M 312.00 52.00 
C 444.60 52.00 549.92 174.71 549.00 304.00 C 548.08 433.29 434.54 547.67 305.00 549.00 C 175.45 550.33 52.00 445.13 52.00 312.00
C 51.27 304.45 51.28 295.48 52.00 288.00
C 52.00 166.17 166.14 52.00 288.00 52.00
C 295.55 51.27 304.52 51.28 312.00 52.00 Z"/>
</g>
<g fill="#C3E8D8" fill-opacity="1.00" stroke="None">
<path d="
M 317.00 44.00 
C 308.16 43.14 297.62 42.63 288.00 43.00
C 296.85 43.52 307.37 44.00 317.00 44.00 Z"/>
</g>
<g fill="#719C8A" fill-opacity="1.00" stroke="None">
<path d="
M 288.00 52.00 
C 296.00 52.00 304.00 52.00 312.00 52.00
C 304.52 51.28 295.55 51.27 288.00 52.00 Z"/>
</g>
<g fill="#065534" fill-opacity="1.00" stroke="None">
<path d="
M 52.00 288.00 
C 52.00 296.00 52.00 304.00 52.00 312.00
C 52.00 445.13 175.45 550.33 305.00 549.00 C 434.54 547.67 548.08 433.29 549.00 304.00 C 549.92 174.71 444.60 52.00 312.00 52.00
C 304.00 52.00 296.00 52.00 288.00 52.00
C 166.14 52.00 52.00 166.17 52.00 288.00
M 314.00 69.00 
C 315.21 69.38 316.76 68.71 318.00 69.00
C 323.50 90.21 330.59 111.05 337.00 132.00
C 330.33 132.00 323.67 132.00 317.00 132.00
C 316.98 127.74 314.02 124.29 314.00 120.00
C 310.67 120.00 307.33 120.00 304.00 120.00
C 301.78 120.00 296.20 118.78 295.00 119.00
C 290.25 120.31 290.10 126.84 289.00 131.00
C 282.33 131.00 275.67 131.00 269.00 131.00
C 276.16 110.18 284.23 89.65 292.00 69.00
C 294.52 66.93 300.58 68.00 304.00 68.00
C 307.64 68.00 311.03 68.06 314.00 69.00
M 408.00 94.00 
C 408.05 99.82 403.82 104.37 403.00 110.00
C 396.86 108.14 391.17 104.95 385.00 103.00
C 382.09 109.64 380.19 116.52 377.08 123.08 C 373.96 129.63 372.72 136.79 369.22 143.22 C 365.73 149.66 355.79 139.41 350.00 140.00
C 353.58 124.46 362.08 110.44 366.00 95.00
C 360.10 93.88 354.66 91.05 349.00 89.00
C 349.84 83.74 353.47 79.35 354.00 74.00
C 372.32 79.50 389.70 88.35 408.00 94.00
M 245.00 76.00 
C 245.00 81.67 245.00 87.33 245.00 93.00
C 237.27 92.38 226.25 93.63 221.75 100.75 C 217.25 107.88 220.06 119.62 227.08 123.92 C 234.11 128.22 244.67 125.98 250.25 119.25 C 255.82 112.52 262.22 125.55 264.00 131.00
C 244.97 147.63 213.08 150.77 202.68 123.32 C 192.28 95.87 217.20 72.60 245.00 76.00
M 461.00 140.00 
C 456.43 143.07 452.89 147.56 448.00 150.00
C 441.60 143.37 443.92 137.75 434.75 132.25 C 425.58 126.75 428.29 138.05 434.25 143.75 C 440.21 149.45 442.06 159.06 439.68 166.68 C 437.29 174.30 427.83 179.05 420.00 178.00 C 412.17 176.95 405.08 173.04 399.30 167.70 C 393.52 162.35 389.28 155.92 386.00 149.00
C 390.48 145.82 393.80 140.60 399.00 139.00
C 403.37 147.56 410.20 159.58 421.00 160.00
C 420.03 147.85 405.27 139.58 408.00 126.00 C 410.73 112.42 427.89 108.58 438.08 114.92 C 448.27 121.27 455.86 129.45 461.00 140.00
M 156.00 128.00 
C 162.41 129.42 169.35 132.33 171.97 139.03 C 174.59 145.73 177.19 154.38 174.00 162.00 C 170.82 169.62 176.06 179.48 175.00 187.00
C 174.53 190.32 170.30 188.50 166.00 189.00 C 161.70 189.50 158.11 189.90 154.00 191.00
C 140.84 194.51 126.84 201.28 116.25 188.75 C 105.66 176.22 108.57 160.82 124.00 157.00
C 126.99 156.26 130.68 155.10 134.00 157.00
C 134.38 157.22 135.00 157.00 135.00 157.00
C 137.58 154.51 130.68 143.84 134.33 139.33 C 137.97 134.81 138.79 128.67 146.00 128.00
C 146.50 127.95 147.00 128.00 147.00 128.00
C 149.75 125.97 153.36 127.41 156.00 128.00
M 401.00 186.00 
C 416.58 187.51 436.55 193.32 450.00 202.00
C 453.74 201.75 458.16 195.87 463.00 198.00 C 467.84 200.13 471.06 200.35 475.00 204.00
C 476.78 195.75 485.40 189.07 494.00 191.00 C 502.60 192.93 507.40 198.33 510.32 206.68 C 513.25 215.02 513.13 224.37 505.25 230.25 C 497.38 236.13 486.51 220.88 486.00 232.00
C 489.00 232.00 492.00 232.00 495.00 232.00
C 495.24 235.56 498.09 238.33 498.00 242.00
C 499.24 244.77 502.04 247.48 502.00 251.00
C 500.71 249.30 497.83 251.01 497.00 249.00
C 493.58 248.19 479.92 243.07 478.00 247.00
C 479.66 267.94 469.40 288.60 451.00 298.00
C 451.49 297.80 452.42 296.82 453.00 297.00
C 455.93 297.91 453.12 305.75 453.00 307.00
C 453.00 383.91 382.46 453.00 306.00 453.00
C 301.91 453.40 297.02 453.39 293.00 453.00
C 285.82 453.00 277.72 452.26 271.00 451.00 C 264.28 449.74 257.58 447.63 251.32 445.68 C 245.06 443.73 239.31 441.23 233.77 438.23 C 228.23 435.23 222.88 433.55 217.92 430.08 C 212.97 426.60 208.21 423.15 203.75 419.25 C 199.29 415.35 194.06 412.34 190.25 407.75 C 186.43 403.16 182.48 398.77 178.75 394.25 C 175.03 389.73 171.95 384.77 169.08 379.92 C 166.20 375.08 162.30 368.70 160.23 363.77 C 158.16 358.84 153.91 350.23 153.22 345.78 C 152.54 341.33 146.54 328.05 150.00 326.00
C 142.02 322.94 136.62 318.21 131.25 310.75 C 125.87 303.30 124.23 294.67 123.00 285.00 C 121.77 275.33 134.15 267.76 137.92 278.08 C 141.70 288.40 137.36 297.60 146.00 304.00
C 145.37 299.61 146.56 294.62 147.00 291.00
C 147.13 284.43 148.19 276.53 149.33 270.33 C 150.47 264.13 152.88 257.85 153.98 251.98 C 155.07 246.11 160.07 241.23 160.77 235.77 C 161.48 230.31 169.37 224.94 169.00 220.00
C 162.79 214.59 156.95 207.27 154.00 200.00
C 161.62 202.56 167.26 209.99 175.00 213.00
C 179.48 202.48 187.82 195.72 196.25 187.25 C 204.68 178.78 213.39 173.16 223.75 166.75 C 234.10 160.34 244.89 157.07 257.01 153.01 C 269.13 148.94 285.27 146.98 299.00 147.00 C 312.73 147.02 328.59 148.62 341.02 151.98 C 353.46 155.33 363.86 161.19 375.08 165.92 C 386.29 170.66 393.11 181.02 401.00 186.00
M 82.00 229.00 
C 101.36 230.92 119.51 242.06 139.00 244.00
C 138.16 250.86 136.37 257.54 134.00 264.00
C 114.04 258.54 94.36 252.08 74.00 248.00
C 74.26 242.39 76.47 237.28 78.00 232.00
C 79.63 228.27 78.26 228.63 82.00 229.00
M 89.00 336.00 
C 87.77 336.65 86.91 339.03 85.00 339.00
C 85.39 336.94 86.09 334.94 87.00 333.00
C 88.61 328.75 90.42 324.56 91.00 320.00
C 85.23 318.28 81.60 312.28 76.00 310.00
C 81.42 307.72 88.82 309.63 95.00 309.00
C 97.08 303.11 98.31 296.35 101.00 291.00
C 104.66 295.68 102.66 303.09 106.32 307.68 C 109.98 312.27 121.89 306.16 126.00 310.00
C 120.35 312.26 116.41 317.71 111.00 320.00
C 110.80 326.53 115.55 331.63 116.00 338.00
C 110.37 335.85 105.49 331.71 100.00 329.00
C 97.08 332.06 93.31 335.15 89.00 336.00
M 505.00 309.00 
C 511.67 309.00 518.33 309.00 525.00 309.00
C 521.34 313.32 513.61 315.52 510.25 320.25 C 506.90 324.99 515.81 333.34 515.00 339.00
C 510.12 335.47 504.18 333.12 500.00 329.00
C 494.08 331.92 489.16 336.82 483.00 339.00
C 485.85 333.16 487.53 326.98 490.00 321.00
C 484.35 317.80 479.84 312.49 474.00 310.00
C 479.75 307.72 487.49 309.63 494.00 309.00
C 494.62 302.72 497.55 297.08 499.00 291.00
C 501.99 296.24 503.53 302.91 505.00 309.00
M 168.00 417.00 
C 161.59 418.00 152.33 422.48 151.01 414.99 C 149.69 407.50 146.84 403.90 141.25 399.75 C 135.67 395.59 127.41 399.39 122.25 403.25 C 117.10 407.12 115.50 415.61 118.77 421.23 C 122.04 426.84 126.11 431.06 132.00 434.00
C 128.32 438.41 124.27 442.39 121.00 447.00
C 98.41 434.39 88.63 402.53 112.70 385.70 C 136.76 368.86 167.45 388.74 168.00 417.00
M 450.00 419.00 
C 454.29 412.99 458.35 404.60 465.00 401.00
C 468.89 405.89 477.35 408.54 472.25 414.25 C 467.14 419.95 464.79 423.66 462.00 430.00
C 469.28 435.12 476.72 426.14 480.25 417.25 C 483.79 408.37 500.12 414.74 495.75 422.75 C 491.38 430.76 484.40 435.94 479.75 443.75 C 475.09 451.55 468.23 461.34 460.92 453.08 C 453.61 444.82 447.14 443.80 439.92 437.08 C 432.69 430.36 425.42 427.09 419.00 420.00
C 428.66 407.26 438.05 394.51 448.00 382.00
C 459.34 384.78 460.42 393.13 453.75 399.75 C 447.07 406.36 438.93 415.68 450.00 419.00
M 190.00 431.00 
C 214.11 435.32 227.38 465.24 211.70 484.70 C 196.02 504.16 165.62 501.48 153.25 478.75 C 140.87 456.03 164.59 426.45 190.00 431.00
M 407.00 432.00 
C 411.27 438.39 416.30 445.49 407.77 448.77 C 399.24 452.05 397.09 456.78 389.00 460.00
C 389.99 462.58 392.04 464.43 393.00 467.00
C 399.77 463.10 406.38 459.14 413.00 455.00
C 415.75 459.65 419.09 464.06 421.00 469.00
C 414.01 471.78 407.89 476.75 401.00 480.00
C 404.49 490.40 412.89 484.39 420.23 478.23 C 427.57 472.07 436.67 474.26 438.00 486.00
C 431.11 489.63 422.10 496.27 415.31 499.31 C 408.51 502.35 398.69 513.90 393.70 506.30 C 388.71 498.71 384.63 491.57 380.23 483.77 C 375.83 475.97 371.00 469.19 366.75 461.25 C 362.49 453.32 377.07 449.72 383.23 445.23 C 389.39 440.74 399.92 435.37 407.00 432.00
M 286.00 470.00 
C 286.36 475.25 283.64 479.72 284.00 485.00
C 273.93 484.98 265.13 479.95 255.00 480.00
C 250.14 491.99 267.27 490.28 275.00 492.00
C 275.03 497.59 272.85 502.60 272.00 508.00
C 264.55 507.19 257.60 504.36 250.00 504.00
C 248.87 511.03 246.59 517.79 246.00 525.00
C 239.21 524.20 232.71 522.26 226.00 521.00
C 231.49 500.90 234.49 480.10 240.00 460.00
C 255.44 462.86 270.83 466.03 286.00 470.00
M 331.00 523.00 
C 331.32 525.13 331.20 527.00 332.00 529.00
C 330.67 529.00 329.33 529.00 328.00 529.00
C 322.83 530.50 317.32 530.93 312.00 532.00
C 309.82 510.81 304.71 490.34 303.00 469.00
C 318.91 467.66 334.34 464.40 350.00 462.00
C 350.17 467.44 352.33 472.40 352.00 478.00
C 342.96 479.12 334.16 481.23 325.00 482.00
C 322.26 497.63 339.61 486.64 348.00 488.00
C 348.34 493.41 349.90 498.51 350.00 504.00
C 342.49 504.23 335.16 505.38 328.00 507.00
C 329.79 512.12 329.32 517.83 331.00 523.00 Z"/>
</g>
<g fill="#84AB99" fill-opacity="1.00" stroke="None">
<path d="
M 292.00 69.00 
C 294.30 67.69 301.28 69.00 304.00 69.00
C 303.96 69.00 304.00 68.00 304.00 68.00
C 300.58 68.00 294.52 66.93 292.00 69.00 Z"/>
</g>
<g fill="#4C7362" fill-opacity="1.00" stroke="None">
<path d="
M 304.00 69.00 
C 307.16 69.00 310.90 68.44 314.00 69.00
C 311.03 68.06 307.64 68.00 304.00 68.00
C 304.00 68.00 303.96 69.00 304.00 69.00 Z"/>
</g>
<g fill="#F5FAF8" fill-opacity="1.00" stroke="None">
<path d="
M 295.00 119.00 
C 298.05 118.16 301.73 119.78 304.00 120.00
C 307.33 120.00 310.67 120.00 314.00 120.00
C 314.02 124.29 316.98 127.74 317.00 132.00
C 323.67 132.00 330.33 132.00 337.00 132.00
C 330.59 111.05 323.50 90.21 318.00 69.00
C 316.76 68.71 315.21 69.38 314.00 69.00
C 310.90 68.44 307.16 69.00 304.00 69.00
C 301.28 69.00 294.30 67.69 292.00 69.00
C 284.23 89.65 276.16 110.18 269.00 131.00
C 275.67 131.00 282.33 131.00 289.00 131.00
C 290.10 126.84 290.25 120.31 295.00 119.00
M 310.00 105.00 
C 305.67 105.00 301.33 105.00 297.00 105.00
C 298.66 97.85 301.79 91.03 304.00 84.00
C 306.90 90.34 308.44 97.93 310.00 105.00 Z"/>
</g>
<g fill="#F4F9F7" fill-opacity="1.00" stroke="None">
<path d="
M 408.00 94.00 
C 389.70 88.35 372.32 79.50 354.00 74.00
C 353.47 79.35 349.84 83.74 349.00 89.00
C 354.66 91.05 360.10 93.88 366.00 95.00
C 362.08 110.44 353.58 124.46 350.00 140.00
C 355.79 139.41 365.73 149.66 369.22 143.22 C 372.72 136.79 373.96 129.63 377.08 123.08 C 380.19 116.52 382.09 109.64 385.00 103.00
C 391.17 104.95 396.86 108.14 403.00 110.00
C 403.82 104.37 408.05 99.82 408.00 94.00 Z"/>
</g>
<g fill="#F4FAF7" fill-opacity="1.00" stroke="None">
<path d="
M 245.00 76.00 
C 217.20 72.60 192.28 95.87 202.68 123.32 C 213.08 150.77 244.97 147.63 264.00 131.00
C 262.22 125.55 255.82 112.52 250.25 119.25 C 244.67 125.98 234.11 128.22 227.08 123.92 C 220.06 119.62 217.25 107.88 221.75 100.75 C 226.25 93.63 237.27 92.38 245.00 93.00
C 245.00 87.33 245.00 81.67 245.00 76.00 Z"/>
</g>
<g fill="#1E583D" fill-opacity="1.00" stroke="None">
<path d="
M 310.00 105.00 
C 308.44 97.93 306.90 90.34 304.00 84.00
C 301.79 91.03 298.66 97.85 297.00 105.00
C 301.33 105.00 305.67 105.00 310.00 105.00 Z"/>
</g>
<g fill="#F3F9F7" fill-opacity="1.00" stroke="None">
<path d="
M 461.00 140.00 
C 455.86 129.45 448.27 121.27 438.08 114.92 C 427.89 108.58 410.73 112.42 408.00 126.00 C 405.27 139.58 420.03 147.85 421.00 160.00
C 410.20 159.58 403.37 147.56 399.00 139.00
C 393.80 140.60 390.48 145.82 386.00 149.00
C 389.28 155.92 393.52 162.35 399.30 167.70 C 405.08 173.04 412.17 176.95 420.00 178.00 C 427.83 179.05 437.29 174.30 439.68 166.68 C 442.06 159.06 440.21 149.45 434.25 143.75 C 428.29 138.05 425.58 126.75 434.75 132.25 C 443.92 137.75 441.60 143.37 448.00 150.00
C 452.89 147.56 456.43 143.07 461.00 140.00 Z"/>
</g>
<g fill="#8AAFA0" fill-opacity="1.00" stroke="None">
<path d="
M 304.00 120.00 
C 301.73 119.78 298.05 118.16 295.00 119.00
C 296.20 118.78 301.78 120.00 304.00 120.00 Z"/>
</g>
<g fill="#B1E1CC" fill-opacity="1.00" stroke="None">
<path d="
M 147.00 128.00 
C 149.95 128.00 153.07 127.70 156.00 128.00
C 153.36 127.41 149.75 125.97 147.00 128.00 Z"/>
</g>
<g fill="#D9F0E8" fill-opacity="1.00" stroke="None">
<path d="
M 135.00 157.00 
C 139.35 159.35 135.31 146.50 136.00 142.00 C 136.69 137.50 142.91 131.53 146.00 128.00
C 138.79 128.67 137.97 134.81 134.33 139.33 C 130.68 143.84 137.58 154.51 135.00 157.00 Z"/>
</g>
<g fill="#FAFDFC" fill-opacity="1.00" stroke="None">
<path d="
M 135.00 157.00 
C 135.00 157.00 134.38 157.22 134.00 157.00
C 132.14 157.97 125.82 156.76 124.00 157.00
C 108.57 160.82 105.66 176.22 116.25 188.75 C 126.84 201.28 140.84 194.51 154.00 191.00
C 156.16 189.75 158.46 188.13 162.01 188.01 C 165.55 187.88 173.26 189.65 175.00 187.00
C 176.06 179.48 170.82 169.62 174.00 162.00 C 177.19 154.38 174.59 145.73 171.97 139.03 C 169.35 132.33 162.41 129.42 156.00 128.00
C 153.07 127.70 149.95 128.00 147.00 128.00
C 147.00 128.00 146.50 127.95 146.00 128.00
C 142.91 131.53 136.69 137.50 136.00 142.00 C 135.31 146.50 139.35 159.35 135.00 157.00 Z"/>
</g>
<g fill="#F3F7F6" fill-opacity="1.00" stroke="None">
<path d="
M 175.00 213.00 
C 187.32 219.30 190.11 208.13 198.75 199.75 C 207.39 191.38 213.79 185.90 223.70 179.70 C 233.61 173.49 242.62 168.97 254.07 165.07 C 265.53 161.18 280.22 158.00 293.00 158.00
C 297.09 157.60 301.98 157.61 306.00 158.00
C 317.75 158.00 330.63 159.67 341.22 163.78 C 351.81 167.89 360.82 168.21 370.08 175.92 C 379.34 183.63 388.98 184.84 401.00 186.00
C 393.11 181.02 386.29 170.66 375.08 165.92 C 363.86 161.19 353.46 155.33 341.02 151.98 C 328.59 148.62 312.73 147.02 299.00 147.00 C 285.27 146.98 269.13 148.94 257.01 153.01 C 244.89 157.07 234.10 160.34 223.75 166.75 C 213.39 173.16 204.68 178.78 196.25 187.25 C 187.82 195.72 179.48 202.48 175.00 213.00 Z"/>
</g>
<g fill="#CDEDDD" fill-opacity="1.00" stroke="None">
<path d="
M 124.00 157.00 
C 125.82 156.76 132.14 157.97 134.00 157.00
C 130.68 155.10 126.99 156.26 124.00 157.00 Z"/>
</g>
<g fill="#8A8886" fill-opacity="1.00" stroke="None">
<path d="
M 293.00 158.00 
C 297.33 158.00 301.67 158.00 306.00 158.00
C 301.98 157.61 297.09 157.60 293.00 158.00 Z"/>
</g>
<g fill="#000000" fill-opacity="1.00" stroke="None">
<path d="
M 175.00 213.00 
C 167.26 209.99 161.62 202.56 154.00 200.00
C 156.95 207.27 162.79 214.59 169.00 220.00
C 171.69 222.34 175.02 224.15 178.00 226.00
C 166.12 246.41 158.54 268.96 158.00 293.00
C 158.00 297.55 158.55 302.48 158.00 307.00
C 157.80 308.64 158.15 310.35 158.00 312.00
C 153.54 311.86 149.36 308.75 147.00 305.00
C 146.79 304.73 146.05 304.35 146.00 304.00
C 137.36 297.60 141.70 288.40 137.92 278.08 C 134.15 267.76 121.77 275.33 123.00 285.00 C 124.23 294.67 125.87 303.30 131.25 310.75 C 136.62 318.21 142.02 322.94 150.00 326.00
C 153.18 327.22 156.54 327.78 160.00 328.00
C 166.57 358.50 182.33 387.06 207.00 408.00
C 208.75 397.82 202.83 384.55 204.01 374.99 C 205.19 365.43 196.43 351.21 204.23 345.23 C 212.03 339.25 223.25 340.03 233.00 338.00 C 242.75 335.97 256.41 335.03 267.00 335.00
C 269.42 334.77 272.91 334.00 276.00 334.00
C 289.53 334.00 302.75 334.03 316.00 333.00 C 329.25 331.97 342.36 333.75 355.07 334.93 C 367.78 336.10 379.35 336.19 391.22 340.78 C 403.10 345.36 394.85 360.58 395.00 372.00 C 395.15 383.42 390.25 398.01 391.00 410.00
C 423.89 382.48 442.03 342.91 443.00 301.00
C 445.95 300.87 448.03 298.12 451.00 298.00
C 469.40 288.60 479.66 267.94 478.00 247.00
C 477.47 240.30 475.17 230.88 472.00 225.00
C 470.26 221.77 466.54 216.92 464.00 214.00
C 460.25 209.70 454.47 204.88 450.00 202.00
C 436.55 193.32 416.58 187.51 401.00 186.00
C 388.98 184.84 379.34 183.63 370.08 175.92 C 360.82 168.21 351.81 167.89 341.22 163.78 C 330.63 159.67 317.75 158.00 306.00 158.00
C 301.67 158.00 297.33 158.00 293.00 158.00
C 280.22 158.00 265.53 161.18 254.07 165.07 C 242.62 168.97 233.61 173.49 223.70 179.70 C 213.79 185.90 207.39 191.38 198.75 199.75 C 190.11 208.13 187.32 219.30 175.00 213.00
M 328.00 180.00 
C 333.77 187.47 333.36 203.09 344.00 205.00 C 354.64 206.90 369.82 205.61 380.01 209.99 C 390.19 214.37 398.31 216.28 407.08 223.92 C 415.86 231.56 427.25 225.82 438.00 224.00
C 436.06 231.97 431.08 239.87 430.02 248.02 C 428.97 256.18 432.41 267.32 430.00 276.00 C 427.60 284.68 416.77 286.69 410.00 282.00
C 406.41 286.76 398.14 289.24 394.70 281.30 C 391.26 273.37 384.71 278.94 391.00 286.00
C 382.66 287.15 375.17 286.40 369.75 280.25 C 364.33 274.09 348.72 281.74 357.00 289.00
C 351.63 291.01 346.34 293.01 342.00 297.00
C 338.46 293.56 338.86 288.65 339.00 284.00
C 333.52 284.58 335.04 296.86 340.00 299.00
C 339.87 301.95 337.12 304.02 337.00 307.00
C 329.23 306.25 318.90 300.44 312.92 296.08 C 306.94 291.73 296.22 283.67 301.00 279.00
C 293.96 277.97 294.62 273.28 299.00 272.00
C 294.47 272.00 291.72 268.46 292.00 264.00
C 294.69 265.37 297.31 266.65 300.00 268.00
C 299.57 263.68 294.33 262.93 291.00 262.00
C 289.63 246.30 292.14 227.05 304.75 216.75 C 317.36 206.46 319.64 192.56 328.00 180.00
M 387.00 290.00 
C 390.08 289.70 394.25 289.00 398.00 289.00
C 406.68 289.00 418.38 288.84 426.02 286.02 C 433.67 283.21 439.18 276.10 440.93 268.93 C 442.67 261.75 443.65 248.59 438.08 242.92 C 432.50 237.26 446.29 224.12 441.22 219.78 C 436.15 215.44 423.06 227.97 416.75 222.25 C 410.45 216.52 402.21 217.71 395.30 212.70 C 388.39 207.68 379.75 206.78 371.33 204.67 C 362.91 202.56 351.31 201.56 342.00 202.00
C 341.76 199.42 339.92 197.38 339.00 195.00
C 348.24 193.30 356.63 191.52 366.02 190.02 C 375.42 188.53 386.78 189.29 396.07 189.93 C 405.36 190.56 415.83 192.07 424.07 194.93 C 432.31 197.78 439.49 199.95 446.25 204.75 C 453.00 209.56 458.86 212.18 463.75 219.25 C 468.65 226.31 471.60 233.72 473.93 242.07 C 476.25 250.43 474.71 261.79 471.69 269.69 C 468.68 277.60 464.64 283.45 457.92 288.92 C 451.19 294.38 444.84 297.39 435.99 298.99 C 427.15 300.60 417.84 303.32 408.00 303.00 C 398.16 302.68 385.75 303.37 376.00 304.00 C 366.24 304.62 357.93 304.40 349.75 309.75 C 341.58 315.11 344.28 327.46 337.00 330.00
C 330.99 299.80 360.95 285.06 387.00 290.00
M 312.00 203.00 
C 303.97 211.63 298.61 223.55 285.98 225.98 C 273.34 228.40 257.30 231.49 244.00 233.00 C 230.70 234.51 211.80 236.92 198.99 233.01 C 186.19 229.10 178.14 223.19 169.00 214.00
C 214.18 242.01 267.01 216.65 312.00 203.00
M 289.00 236.00 
C 287.36 243.73 286.56 251.73 287.00 260.00
C 283.81 259.95 279.65 256.50 277.00 259.00
C 280.08 260.69 284.28 261.40 288.00 262.00
C 287.41 264.91 289.59 267.06 289.00 270.00
C 285.83 270.61 281.35 268.75 279.00 271.00
C 283.58 273.25 292.92 269.62 292.00 278.00
C 290.79 279.69 286.36 278.42 287.00 282.00
C 289.03 280.29 291.96 281.69 294.00 280.00
C 300.97 293.52 315.17 301.50 327.00 309.00
C 322.75 308.36 319.27 310.64 315.00 310.00
C 316.50 299.84 304.91 298.16 298.00 296.00
C 296.28 302.74 312.26 300.56 311.00 309.00 C 309.73 317.44 306.51 321.69 299.00 325.00
C 299.52 321.31 295.45 317.69 292.00 319.00
C 291.73 314.61 296.91 312.50 296.00 308.00
C 291.84 310.69 284.85 318.15 278.31 312.69 C 271.76 307.24 281.37 299.47 280.00 293.00
C 273.65 295.67 270.96 308.47 275.00 315.00
C 267.98 315.17 261.24 316.62 254.00 316.00
C 254.67 308.64 253.96 304.16 249.75 298.25 C 245.53 292.35 239.30 294.65 233.78 291.22 C 228.26 287.79 214.99 297.21 228.00 295.00 C 241.01 292.78 255.28 302.92 250.00 317.00
C 229.84 316.54 211.65 323.92 193.00 329.00
C 176.79 273.73 241.91 236.55 289.00 236.00
M 438.00 264.00 
C 436.75 257.57 432.18 251.55 434.00 245.00
C 438.24 248.44 440.11 258.56 438.00 264.00
M 187.00 312.00 
C 187.00 315.00 187.00 318.00 187.00 321.00
C 178.72 324.56 164.51 326.45 155.98 324.02 C 147.44 321.60 137.87 317.51 134.23 308.77 C 130.59 300.03 121.29 292.05 126.99 280.99 C 132.69 269.94 136.41 289.00 137.93 297.07 C 139.44 305.14 147.83 313.16 156.22 315.78 C 164.62 318.40 178.87 315.94 187.00 312.00
M 371.00 285.00 
C 369.15 288.70 357.92 289.90 358.00 283.00
C 362.38 280.91 367.04 282.81 371.00 285.00
M 424.00 305.00 
C 423.83 307.72 424.61 310.67 423.00 313.00
C 421.01 310.43 416.57 310.15 416.00 307.00
C 418.78 306.74 420.89 304.21 424.00 305.00
M 409.00 309.00 
C 405.16 312.69 401.17 309.53 397.00 309.00
C 403.56 312.79 396.91 315.31 392.00 312.00
C 392.35 318.04 380.13 316.30 374.00 316.00 C 367.87 315.70 358.54 314.16 353.00 312.00
C 358.27 304.87 372.68 319.23 375.00 307.00
C 386.02 308.29 399.57 304.39 409.00 309.00
M 418.00 319.00 
C 419.71 308.38 410.33 320.04 413.00 310.00
C 417.74 309.89 421.28 315.23 418.00 319.00
M 302.00 330.00 
C 296.63 330.52 290.05 331.00 284.00 331.00
C 268.24 331.00 246.57 331.27 232.00 334.00 C 217.42 336.73 196.91 337.14 198.00 355.00
C 181.67 350.12 189.32 332.38 203.02 330.02 C 216.73 327.67 227.35 321.13 242.00 321.00 C 256.65 320.87 272.89 317.23 288.00 318.00
C 284.33 330.28 304.02 332.60 308.75 322.75 C 313.48 312.91 324.21 311.31 335.00 311.00
C 334.94 319.28 334.34 327.40 324.99 326.99 C 315.65 326.58 311.28 331.35 302.00 330.00
M 374.00 319.00 
C 377.33 319.00 380.67 319.00 384.00 319.00
C 390.92 319.00 396.85 316.94 402.00 322.00
C 396.25 317.70 404.04 312.45 408.08 316.92 C 412.12 321.38 417.14 323.79 423.00 321.00
C 423.00 324.33 423.00 327.67 423.00 331.00
C 399.26 321.92 371.66 319.65 346.00 324.00
C 345.39 320.52 347.79 317.95 349.00 315.00
C 357.03 317.42 365.36 318.88 374.00 319.00
M 380.00 326.00 
C 389.52 326.00 399.47 327.53 408.00 330.00
C 388.49 340.18 364.29 331.03 344.00 329.00
C 348.43 325.25 356.00 326.41 362.00 326.00
C 367.67 325.45 374.40 325.46 380.00 326.00
M 401.00 346.00 
C 402.46 341.63 397.68 340.66 396.00 338.00
C 403.40 338.06 414.18 326.68 420.69 334.31 C 427.21 341.93 405.71 344.17 401.00 346.00 Z"/>
</g>
<g fill="#FBFBFB" fill-opacity="1.00" stroke="None">
<path d="
M 328.00 180.00 
C 319.64 192.56 317.36 206.46 304.75 216.75 C 292.14 227.05 289.63 246.30 291.00 262.00
C 294.33 262.93 299.57 263.68 300.00 268.00
C 297.31 266.65 294.69 265.37 292.00 264.00
C 291.72 268.46 294.47 272.00 299.00 272.00
C 294.62 273.28 293.96 277.97 301.00 279.00
C 296.22 283.67 306.94 291.73 312.92 296.08 C 318.90 300.44 329.23 306.25 337.00 307.00
C 337.12 304.02 339.87 301.95 340.00 299.00
C 335.04 296.86 333.52 284.58 339.00 284.00
C 338.86 288.65 338.46 293.56 342.00 297.00
C 346.34 293.01 351.63 291.01 357.00 289.00
C 348.72 281.74 364.33 274.09 369.75 280.25 C 375.17 286.40 382.66 287.15 391.00 286.00
C 384.71 278.94 391.26 273.37 394.70 281.30 C 398.14 289.24 406.41 286.76 410.00 282.00
C 416.77 286.69 427.60 284.68 430.00 276.00 C 432.41 267.32 428.97 256.18 430.02 248.02 C 431.08 239.87 436.06 231.97 438.00 224.00
C 427.25 225.82 415.86 231.56 407.08 223.92 C 398.31 216.28 390.19 214.37 380.01 209.99 C 369.82 205.61 354.64 206.90 344.00 205.00 C 333.36 203.09 333.77 187.47 328.00 180.00
M 315.00 252.00 
C 318.01 252.92 318.00 261.43 321.75 263.25 C 325.51 265.06 329.62 270.13 334.23 265.23 C 338.84 260.33 342.45 265.13 337.75 268.75 C 333.05 272.38 328.81 272.28 323.93 271.07 C 319.04 269.86 317.72 264.73 314.70 262.30 C 311.68 259.88 308.99 250.16 315.00 252.00 Z"/>
</g>
<g fill="#C2E6D8" fill-opacity="1.00" stroke="None">
<path d="
M 154.00 191.00 
C 158.11 189.90 161.70 189.50 166.00 189.00 C 170.30 188.50 174.53 190.32 175.00 187.00
C 173.26 189.65 165.55 187.88 162.01 188.01 C 158.46 188.13 156.16 189.75 154.00 191.00 Z"/>
</g>
<g fill="#F9F9F9" fill-opacity="1.00" stroke="None">
<path d="
M 398.00 289.00 
C 394.92 289.30 390.75 290.00 387.00 290.00
C 360.95 285.06 330.99 299.80 337.00 330.00
C 344.28 327.46 341.58 315.11 349.75 309.75 C 357.93 304.40 366.24 304.62 376.00 304.00 C 385.75 303.37 398.16 302.68 408.00 303.00 C 417.84 303.32 427.15 300.60 435.99 298.99 C 444.84 297.39 451.19 294.38 457.92 288.92 C 464.64 283.45 468.68 277.60 471.69 269.69 C 474.71 261.79 476.25 250.43 473.93 242.07 C 471.60 233.72 468.65 226.31 463.75 219.25 C 458.86 212.18 453.00 209.56 446.25 204.75 C 439.49 199.95 432.31 197.78 424.07 194.93 C 415.83 192.07 405.36 190.56 396.07 189.93 C 386.78 189.29 375.42 188.53 366.02 190.02 C 356.63 191.52 348.24 193.30 339.00 195.00
C 339.92 197.38 341.76 199.42 342.00 202.00
C 351.31 201.56 362.91 202.56 371.33 204.67 C 379.75 206.78 388.39 207.68 395.30 212.70 C 402.21 217.71 410.45 216.52 416.75 222.25 C 423.06 227.97 436.15 215.44 441.22 219.78 C 446.29 224.12 432.50 237.26 438.08 242.92 C 443.65 248.59 442.67 261.75 440.93 268.93 C 439.18 276.10 433.67 283.21 426.02 286.02 C 418.38 288.84 406.68 289.00 398.00 289.00 Z"/>
</g>
<g fill="#F2F7F5" fill-opacity="1.00" stroke="None">
<path d="
M 450.00 202.00 
C 454.47 204.88 460.25 209.70 464.00 214.00
C 466.46 214.62 470.25 211.96 473.00 214.00
C 473.04 217.78 473.28 221.55 472.00 225.00
C 475.17 230.88 477.47 240.30 478.00 247.00
C 479.92 243.07 493.58 248.19 497.00 249.00
C 499.30 248.14 498.39 244.26 498.00 242.00
C 498.09 238.33 495.24 235.56 495.00 232.00
C 492.00 232.00 489.00 232.00 486.00 232.00
C 486.51 220.88 497.38 236.13 505.25 230.25 C 513.13 224.37 513.25 215.02 510.32 206.68 C 507.40 198.33 502.60 192.93 494.00 191.00 C 485.40 189.07 476.78 195.75 475.00 204.00
C 471.06 200.35 467.84 200.13 463.00 198.00 C 458.16 195.87 453.74 201.75 450.00 202.00
M 496.00 206.00 
C 502.58 208.16 497.54 219.67 491.00 217.00 C 484.46 214.33 489.76 203.95 496.00 206.00 Z"/>
</g>
<g fill="#F4F4F4" fill-opacity="1.00" stroke="None">
<path d="
M 312.00 203.00 
C 267.01 216.65 214.18 242.01 169.00 214.00
C 178.14 223.19 186.19 229.10 198.99 233.01 C 211.80 236.92 230.70 234.51 244.00 233.00 C 257.30 231.49 273.34 228.40 285.98 225.98 C 298.61 223.55 303.97 211.63 312.00 203.00 Z"/>
</g>
<g fill="#165338" fill-opacity="1.00" stroke="None">
<path d="
M 496.00 206.00 
C 489.76 203.95 484.46 214.33 491.00 217.00 C 497.54 219.67 502.58 208.16 496.00 206.00 Z"/>
</g>
<g fill="#164D35" fill-opacity="1.00" stroke="None">
<path d="
M 464.00 214.00 
C 466.54 216.92 470.26 221.77 472.00 225.00
C 473.28 221.55 473.04 217.78 473.00 214.00
C 470.25 211.96 466.46 214.62 464.00 214.00 Z"/>
</g>
<g fill="#F3F7F5" fill-opacity="1.00" stroke="None">
<path d="
M 147.00 291.00 
C 146.92 295.06 148.23 301.16 147.00 305.00
C 149.36 308.75 153.54 311.86 158.00 312.00
C 158.15 310.35 157.80 308.64 158.00 307.00
C 158.09 303.13 157.62 296.98 158.00 293.00
C 158.54 268.96 166.12 246.41 178.00 226.00
C 175.02 224.15 171.69 222.34 169.00 220.00
C 169.37 224.94 161.48 230.31 160.77 235.77 C 160.07 241.23 155.07 246.11 153.98 251.98 C 152.88 257.85 150.47 264.13 149.33 270.33 C 148.19 276.53 147.13 284.43 147.00 291.00 Z"/>
</g>
<g fill="#A8D3C1" fill-opacity="1.00" stroke="None">
<path d="
M 78.00 232.00 
C 78.50 231.27 81.13 229.18 82.00 229.00
C 78.26 228.63 79.63 228.27 78.00 232.00 Z"/>
</g>
<g fill="#F4FAF8" fill-opacity="1.00" stroke="None">
<path d="
M 78.00 232.00 
C 76.47 237.28 74.26 242.39 74.00 248.00
C 94.36 252.08 114.04 258.54 134.00 264.00
C 136.37 257.54 138.16 250.86 139.00 244.00
C 119.51 242.06 101.36 230.92 82.00 229.00
C 81.13 229.18 78.50 231.27 78.00 232.00 Z"/>
</g>
<g fill="#FAFAFA" fill-opacity="1.00" stroke="None">
<path d="
M 289.00 236.00 
C 241.91 236.55 176.79 273.73 193.00 329.00
C 211.65 323.92 229.84 316.54 250.00 317.00
C 255.28 302.92 241.01 292.78 228.00 295.00 C 214.99 297.21 228.26 287.79 233.78 291.22 C 239.30 294.65 245.53 292.35 249.75 298.25 C 253.96 304.16 254.67 308.64 254.00 316.00
C 261.24 316.62 267.98 315.17 275.00 315.00
C 270.96 308.47 273.65 295.67 280.00 293.00
C 281.37 299.47 271.76 307.24 278.31 312.69 C 284.85 318.15 291.84 310.69 296.00 308.00
C 296.91 312.50 291.73 314.61 292.00 319.00
C 295.45 317.69 299.52 321.31 299.00 325.00
C 306.51 321.69 309.73 317.44 311.00 309.00 C 312.26 300.56 296.28 302.74 298.00 296.00
C 304.91 298.16 316.50 299.84 315.00 310.00
C 319.27 310.64 322.75 308.36 327.00 309.00
C 315.17 301.50 300.97 293.52 294.00 280.00
C 291.96 281.69 289.03 280.29 287.00 282.00
C 286.36 278.42 290.79 279.69 292.00 278.00
C 292.92 269.62 283.58 273.25 279.00 271.00
C 281.35 268.75 285.83 270.61 289.00 270.00
C 289.59 267.06 287.41 264.91 288.00 262.00
C 284.28 261.40 280.08 260.69 277.00 259.00
C 279.65 256.50 283.81 259.95 287.00 260.00
C 286.56 251.73 287.36 243.73 289.00 236.00 Z"/>
</g>
<g fill="#CAEADC" fill-opacity="1.00" stroke="None">
<path d="
M 497.00 249.00 
C 497.83 251.01 500.71 249.30 502.00 251.00
C 502.04 247.48 499.24 244.77 498.00 242.00
C 498.39 244.26 499.30 248.14 497.00 249.00 Z"/>
</g>
<g fill="#D1D1D1" fill-opacity="1.00" stroke="None">
<path d="
M 438.00 264.00 
C 440.11 258.56 438.24 248.44 434.00 245.00
C 432.18 251.55 436.75 257.57 438.00 264.00 Z"/>
</g>
<g fill="#060606" fill-opacity="1.00" stroke="None">
<path d="
M 315.00 252.00 
C 308.99 250.16 311.68 259.88 314.70 262.30 C 317.72 264.73 319.04 269.86 323.93 271.07 C 328.81 272.28 333.05 272.38 337.75 268.75 C 342.45 265.13 338.84 260.33 334.23 265.23 C 329.62 270.13 325.51 265.06 321.75 263.25 C 318.00 261.43 318.01 252.92 315.00 252.00 Z"/>
</g>
<g fill="#F4F3F4" fill-opacity="1.00" stroke="None">
<path d="
M 187.00 312.00 
C 178.87 315.94 164.62 318.40 156.22 315.78 C 147.83 313.16 139.44 305.14 137.93 297.07 C 136.41 289.00 132.69 269.94 126.99 280.99 C 121.29 292.05 130.59 300.03 134.23 308.77 C 137.87 317.51 147.44 321.60 155.98 324.02 C 164.51 326.45 178.72 324.56 187.00 321.00
C 187.00 318.00 187.00 315.00 187.00 312.00 Z"/>
</g>
<g fill="#E2E2E2" fill-opacity="1.00" stroke="None">
<path d="
M 371.00 285.00 
C 367.04 282.81 362.38 280.91 358.00 283.00
C 357.92 289.90 369.15 288.70 371.00 285.00 Z"/>
</g>
<g fill="#C8EEDE" fill-opacity="1.00" stroke="None">
<path d="
M 43.00 315.00 
C 43.41 305.47 43.28 293.58 43.00 284.00
C 42.31 294.06 42.45 304.93 43.00 315.00 Z"/>
</g>
<g fill="#6C9584" fill-opacity="1.00" stroke="None">
<path d="
M 52.00 312.00 
C 52.00 304.00 52.00 296.00 52.00 288.00
C 51.28 295.48 51.27 304.45 52.00 312.00 Z"/>
</g>
<g fill="#636363" fill-opacity="1.00" stroke="None">
<path d="
M 387.00 290.00 
C 390.75 290.00 394.92 289.30 398.00 289.00
C 394.25 289.00 390.08 289.70 387.00 290.00 Z"/>
</g>
<g fill="#F0F9F6" fill-opacity="1.00" stroke="None">
<path d="
M 87.00 333.00 
C 87.14 333.74 89.05 334.84 89.00 336.00
C 93.31 335.15 97.08 332.06 100.00 329.00
C 105.49 331.71 110.37 335.85 116.00 338.00
C 115.55 331.63 110.80 326.53 111.00 320.00
C 116.41 317.71 120.35 312.26 126.00 310.00
C 121.89 306.16 109.98 312.27 106.32 307.68 C 102.66 303.09 104.66 295.68 101.00 291.00
C 98.31 296.35 97.08 303.11 95.00 309.00
C 88.82 309.63 81.42 307.72 76.00 310.00
C 81.60 312.28 85.23 318.28 91.00 320.00
C 90.42 324.56 88.61 328.75 87.00 333.00 Z"/>
</g>
<g fill="#608673" fill-opacity="1.00" stroke="None">
<path d="
M 146.00 304.00 
C 146.05 304.35 146.79 304.73 147.00 305.00
C 148.23 301.16 146.92 295.06 147.00 291.00
C 146.56 294.62 145.37 299.61 146.00 304.00 Z"/>
</g>
<g fill="#EFF9F5" fill-opacity="1.00" stroke="None">
<path d="
M 505.00 309.00 
C 503.53 302.91 501.99 296.24 499.00 291.00
C 497.55 297.08 494.62 302.72 494.00 309.00
C 487.49 309.63 479.75 307.72 474.00 310.00
C 479.84 312.49 484.35 317.80 490.00 321.00
C 487.53 326.98 485.85 333.16 483.00 339.00
C 489.16 336.82 494.08 331.92 500.00 329.00
C 504.18 333.12 510.12 335.47 515.00 339.00
C 515.81 333.34 506.90 324.99 510.25 320.25 C 513.61 315.52 521.34 313.32 525.00 309.00
C 518.33 309.00 511.67 309.00 505.00 309.00 Z"/>
</g>
<g fill="#7F7C7B" fill-opacity="1.00" stroke="None">
<path d="
M 158.00 307.00 
C 158.55 302.48 158.00 297.55 158.00 293.00
C 157.62 296.98 158.09 303.13 158.00 307.00 Z"/>
</g>
<g fill="#F8FBFA" fill-opacity="1.00" stroke="None">
<path d="
M 451.00 298.00 
C 448.03 298.12 445.95 300.87 443.00 301.00
C 442.03 342.91 423.89 382.48 391.00 410.00
C 390.25 398.01 395.15 383.42 395.00 372.00 C 394.85 360.58 403.10 345.36 391.22 340.78 C 379.35 336.19 367.78 336.10 355.07 334.93 C 342.36 333.75 329.25 331.97 316.00 333.00 C 302.75 334.03 289.53 334.00 276.00 334.00
C 273.58 334.23 270.10 335.00 267.00 335.00
C 256.41 335.03 242.75 335.97 233.00 338.00 C 223.25 340.03 212.03 339.25 204.23 345.23 C 196.43 351.21 205.19 365.43 204.01 374.99 C 202.83 384.55 208.75 397.82 207.00 408.00
C 182.33 387.06 166.57 358.50 160.00 328.00
C 156.54 327.78 153.18 327.22 150.00 326.00
C 146.54 328.05 152.54 341.33 153.22 345.78 C 153.91 350.23 158.16 358.84 160.23 363.77 C 162.30 368.70 166.20 375.08 169.08 379.92 C 171.95 384.77 175.03 389.73 178.75 394.25 C 182.48 398.77 186.43 403.16 190.25 407.75 C 194.06 412.34 199.29 415.35 203.75 419.25 C 208.21 423.15 212.97 426.60 217.92 430.08 C 222.88 433.55 228.23 435.23 233.77 438.23 C 239.31 441.23 245.06 443.73 251.32 445.68 C 257.58 447.63 264.28 449.74 271.00 451.00 C 277.72 452.26 285.82 453.00 293.00 453.00
C 297.33 453.00 301.67 453.00 306.00 453.00
C 382.46 453.00 453.00 383.91 453.00 307.00
C 453.00 305.34 454.04 298.10 453.00 297.00
C 452.42 296.82 451.49 297.80 451.00 298.00
M 378.00 420.00 
C 372.68 421.77 368.74 426.61 363.00 427.00
C 359.56 418.66 353.21 413.51 345.92 408.08 C 338.63 402.66 330.48 397.83 321.32 395.68 C 312.16 393.53 297.42 391.55 288.00 394.00 C 278.58 396.45 269.97 398.48 262.25 404.25 C 254.54 410.03 248.63 413.26 243.08 422.08 C 237.53 430.90 228.71 424.03 221.00 419.00
C 252.74 360.25 347.72 360.49 378.00 420.00
M 343.00 436.00 
C 341.63 436.56 339.70 436.87 339.00 437.00
C 328.98 438.94 319.67 442.00 309.00 442.00
C 303.65 442.52 297.28 442.51 292.00 442.00
C 287.71 442.00 284.05 441.64 280.00 441.00
C 269.56 441.18 261.06 441.11 253.00 435.00
C 251.80 434.09 250.26 433.80 249.00 433.00
C 270.03 394.56 331.52 394.46 354.00 432.00
C 350.45 433.73 346.56 434.27 343.00 436.00 Z"/>
</g>
<g fill="#6F9D89" fill-opacity="1.00" stroke="None">
<path d="
M 453.00 307.00 
C 453.12 305.75 455.93 297.91 453.00 297.00
C 454.04 298.10 453.00 305.34 453.00 307.00 Z"/>
</g>
<g fill="#E8E8E8" fill-opacity="1.00" stroke="None">
<path d="
M 424.00 305.00 
C 420.89 304.21 418.78 306.74 416.00 307.00
C 416.57 310.15 421.01 310.43 423.00 313.00
C 424.61 310.67 423.83 307.72 424.00 305.00 Z"/>
</g>
<g fill="#EDEDED" fill-opacity="1.00" stroke="None">
<path d="
M 409.00 309.00 
C 399.57 304.39 386.02 308.29 375.00 307.00
C 372.68 319.23 358.27 304.87 353.00 312.00
C 358.54 314.16 367.87 315.70 374.00 316.00 C 380.13 316.30 392.35 318.04 392.00 312.00
C 396.91 315.31 403.56 312.79 397.00 309.00
C 401.17 309.53 405.16 312.69 409.00 309.00 Z"/>
</g>
<g fill="#DADADA" fill-opacity="1.00" stroke="None">
<path d="
M 418.00 319.00 
C 421.28 315.23 417.74 309.89 413.00 310.00
C 410.33 320.04 419.71 308.38 418.00 319.00 Z"/>
</g>
<g fill="#F5F5F5" fill-opacity="1.00" stroke="None">
<path d="
M 284.00 331.00 
C 289.37 330.48 295.95 330.00 302.00 330.00
C 311.28 331.35 315.65 326.58 324.99 326.99 C 334.34 327.40 334.94 319.28 335.00 311.00
C 324.21 311.31 313.48 312.91 308.75 322.75 C 304.02 332.60 284.33 330.28 288.00 318.00
C 272.89 317.23 256.65 320.87 242.00 321.00 C 227.35 321.13 216.73 327.67 203.02 330.02 C 189.32 332.38 181.67 350.12 198.00 355.00
C 196.91 337.14 217.42 336.73 232.00 334.00 C 246.57 331.27 268.24 331.00 284.00 331.00 Z"/>
</g>
<g fill="#EBEBEB" fill-opacity="1.00" stroke="None">
<path d="
M 384.00 319.00 
C 380.86 319.30 377.08 319.30 374.00 319.00
C 365.36 318.88 357.03 317.42 349.00 315.00
C 347.79 317.95 345.39 320.52 346.00 324.00
C 371.66 319.65 399.26 321.92 423.00 331.00
C 423.00 327.67 423.00 324.33 423.00 321.00
C 417.14 323.79 412.12 321.38 408.08 316.92 C 404.04 312.45 396.25 317.70 402.00 322.00
C 396.85 316.94 390.92 319.00 384.00 319.00 Z"/>
</g>
<g fill="#737373" fill-opacity="1.00" stroke="None">
<path d="
M 384.00 319.00 
C 380.67 319.00 377.33 319.00 374.00 319.00
C 377.08 319.30 380.86 319.30 384.00 319.00 Z"/>
</g>
<g fill="#818181" fill-opacity="1.00" stroke="None">
<path d="
M 362.00 326.00 
C 368.00 326.00 374.00 326.00 380.00 326.00
C 374.40 325.46 367.67 325.45 362.00 326.00 Z"/>
</g>
<g fill="#F1F1F1" fill-opacity="1.00" stroke="None">
<path d="
M 380.00 326.00 
C 374.00 326.00 368.00 326.00 362.00 326.00
C 356.00 326.41 348.43 325.25 344.00 329.00
C 364.29 331.03 388.49 340.18 408.00 330.00
C 399.47 327.53 389.52 326.00 380.00 326.00 Z"/>
</g>
<g fill="#888888" fill-opacity="1.00" stroke="None">
<path d="
M 284.00 331.00 
C 290.05 331.00 296.63 330.52 302.00 330.00
C 295.95 330.00 289.37 330.48 284.00 331.00 Z"/>
</g>
<g fill="#F0F0F0" fill-opacity="1.00" stroke="None">
<path d="
M 401.00 346.00 
C 405.71 344.17 427.21 341.93 420.69 334.31 C 414.18 326.68 403.40 338.06 396.00 338.00
C 397.68 340.66 402.46 341.63 401.00 346.00 Z"/>
</g>
<g fill="#BAE5D5" fill-opacity="1.00" stroke="None">
<path d="
M 89.00 336.00 
C 89.05 334.84 87.14 333.74 87.00 333.00
C 86.09 334.94 85.39 336.94 85.00 339.00
C 86.91 339.03 87.77 336.65 89.00 336.00 Z"/>
</g>
<g fill="#7A7A7A" fill-opacity="1.00" stroke="None">
<path d="
M 267.00 335.00 
C 270.10 335.00 273.58 334.23 276.00 334.00
C 272.91 334.00 269.42 334.77 267.00 335.00 Z"/>
</g>
<g fill="#095534" fill-opacity="1.00" stroke="None">
<path d="
M 378.00 420.00 
C 347.72 360.49 252.74 360.25 221.00 419.00
C 228.71 424.03 237.53 430.90 243.08 422.08 C 248.63 413.26 254.54 410.03 262.25 404.25 C 269.97 398.48 278.58 396.45 288.00 394.00 C 297.42 391.55 312.16 393.53 321.32 395.68 C 330.48 397.83 338.63 402.66 345.92 408.08 C 353.21 413.51 359.56 418.66 363.00 427.00
C 368.74 426.61 372.68 421.77 378.00 420.00 Z"/>
</g>
<g fill="#F3F9F7" fill-opacity="1.00" stroke="None">
<path d="
M 168.00 417.00 
C 167.45 388.74 136.76 368.86 112.70 385.70 C 88.63 402.53 98.41 434.39 121.00 447.00
C 124.27 442.39 128.32 438.41 132.00 434.00
C 126.11 431.06 122.04 426.84 118.77 421.23 C 115.50 415.61 117.10 407.12 122.25 403.25 C 127.41 399.39 135.67 395.59 141.25 399.75 C 146.84 403.90 149.69 407.50 151.01 414.99 C 152.33 422.48 161.59 418.00 168.00 417.00 Z"/>
</g>
<g fill="#F3F9F7" fill-opacity="1.00" stroke="None">
<path d="
M 450.00 419.00 
C 438.93 415.68 447.07 406.36 453.75 399.75 C 460.42 393.13 459.34 384.78 448.00 382.00
C 438.05 394.51 428.66 407.26 419.00 420.00
C 425.42 427.09 432.69 430.36 439.92 437.08 C 447.14 443.80 453.61 444.82 460.92 453.08 C 468.23 461.34 475.09 451.55 479.75 443.75 C 484.40 435.94 491.38 430.76 495.75 422.75 C 500.12 414.74 483.79 408.37 480.25 417.25 C 476.72 426.14 469.28 435.12 462.00 430.00
C 464.79 423.66 467.14 419.95 472.25 414.25 C 477.35 408.54 468.89 405.89 465.00 401.00
C 458.35 404.60 454.29 412.99 450.00 419.00 Z"/>
</g>
<g fill="#0D5535" fill-opacity="1.00" stroke="None">
<path d="
M 253.00 435.00 
C 255.11 435.90 258.04 435.36 260.00 437.00
C 278.23 408.83 323.76 409.22 343.00 436.00
C 346.56 434.27 350.45 433.73 354.00 432.00
C 331.52 394.46 270.03 394.56 249.00 433.00
C 250.26 433.80 251.80 434.09 253.00 435.00 Z"/>
</g>
<g fill="#D1EBE1" fill-opacity="1.00" stroke="None">
<path d="
M 253.00 435.00 
C 261.06 441.11 269.56 441.18 280.00 441.00
C 274.26 440.09 268.64 439.35 263.00 438.00
C 270.60 427.47 282.82 419.60 296.00 419.00
C 299.74 418.39 303.33 418.40 307.00 419.00
C 314.00 419.38 319.86 422.64 326.08 424.92 C 332.29 427.21 334.52 434.26 339.00 437.00
C 339.70 436.87 341.63 436.56 343.00 436.00
C 323.76 409.22 278.23 408.83 260.00 437.00
C 258.04 435.36 255.11 435.90 253.00 435.00 Z"/>
</g>
<g fill="#6B9583" fill-opacity="1.00" stroke="None">
<path d="
M 296.00 419.00 
C 299.59 418.81 303.41 418.81 307.00 419.00
C 303.33 418.40 299.74 418.39 296.00 419.00 Z"/>
</g>
<g fill="#085534" fill-opacity="1.00" stroke="None">
<path d="
M 280.00 441.00 
C 284.05 441.64 287.71 442.00 292.00 442.00
C 297.67 442.00 303.33 442.00 309.00 442.00
C 319.67 442.00 328.98 438.94 339.00 437.00
C 334.52 434.26 332.29 427.21 326.08 424.92 C 319.86 422.64 314.00 419.38 307.00 419.00
C 303.41 418.81 299.59 418.81 296.00 419.00
C 282.82 419.60 270.60 427.47 263.00 438.00
C 268.64 439.35 274.26 440.09 280.00 441.00 Z"/>
</g>
<g fill="#F5FAF8" fill-opacity="1.00" stroke="None">
<path d="
M 190.00 431.00 
C 164.59 426.45 140.87 456.03 153.25 478.75 C 165.62 501.48 196.02 504.16 211.70 484.70 C 227.38 465.24 214.11 435.32 190.00 431.00
M 191.00 448.00 
C 208.84 452.84 196.17 486.46 178.33 480.67 C 160.49 474.88 173.26 443.19 191.00 448.00 Z"/>
</g>
<g fill="#F3F9F7" fill-opacity="1.00" stroke="None">
<path d="
M 407.00 432.00 
C 399.92 435.37 389.39 440.74 383.23 445.23 C 377.07 449.72 362.49 453.32 366.75 461.25 C 371.00 469.19 375.83 475.97 380.23 483.77 C 384.63 491.57 388.71 498.71 393.70 506.30 C 398.69 513.90 408.51 502.35 415.31 499.31 C 422.10 496.27 431.11 489.63 438.00 486.00
C 436.67 474.26 427.57 472.07 420.23 478.23 C 412.89 484.39 404.49 490.40 401.00 480.00
C 407.89 476.75 414.01 471.78 421.00 469.00
C 419.09 464.06 415.75 459.65 413.00 455.00
C 406.38 459.14 399.77 463.10 393.00 467.00
C 392.04 464.43 389.99 462.58 389.00 460.00
C 397.09 456.78 399.24 452.05 407.77 448.77 C 416.30 445.49 411.27 438.39 407.00 432.00 Z"/>
</g>
<g fill="#719786" fill-opacity="1.00" stroke="None">
<path d="
M 309.00 442.00 
C 303.33 442.00 297.67 442.00 292.00 442.00
C 297.28 442.51 303.65 442.52 309.00 442.00 Z"/>
</g>
<g fill="#0A5435" fill-opacity="1.00" stroke="None">
<path d="
M 191.00 448.00 
C 173.26 443.19 160.49 474.88 178.33 480.67 C 196.17 486.46 208.84 452.84 191.00 448.00 Z"/>
</g>
<g fill="#759F8A" fill-opacity="1.00" stroke="None">
<path d="
M 306.00 453.00 
C 301.67 453.00 297.33 453.00 293.00 453.00
C 297.02 453.39 301.91 453.40 306.00 453.00 Z"/>
</g>
<g fill="#F4FAF8" fill-opacity="1.00" stroke="None">
<path d="
M 286.00 470.00 
C 270.83 466.03 255.44 462.86 240.00 460.00
C 234.49 480.10 231.49 500.90 226.00 521.00
C 232.71 522.26 239.21 524.20 246.00 525.00
C 246.59 517.79 248.87 511.03 250.00 504.00
C 257.60 504.36 264.55 507.19 272.00 508.00
C 272.85 502.60 275.03 497.59 275.00 492.00
C 267.27 490.28 250.14 491.99 255.00 480.00
C 265.13 479.95 273.93 484.98 284.00 485.00
C 283.64 479.72 286.36 475.25 286.00 470.00 Z"/>
</g>
<g fill="#F4FAF8" fill-opacity="1.00" stroke="None">
<path d="
M 328.00 529.00 
C 329.53 527.95 330.87 524.61 331.00 523.00
C 329.32 517.83 329.79 512.12 328.00 507.00
C 335.16 505.38 342.49 504.23 350.00 504.00
C 349.90 498.51 348.34 493.41 348.00 488.00
C 339.61 486.64 322.26 497.63 325.00 482.00
C 334.16 481.23 342.96 479.12 352.00 478.00
C 352.33 472.40 350.17 467.44 350.00 462.00
C 334.34 464.40 318.91 467.66 303.00 469.00
C 304.71 490.34 309.82 510.81 312.00 532.00
C 317.32 530.93 322.83 530.50 328.00 529.00 Z"/>
</g>
<g fill="#BDE4D4" fill-opacity="1.00" stroke="None">
<path d="
M 328.00 529.00 
C 329.33 529.00 330.67 529.00 332.00 529.00
C 331.20 527.00 331.32 525.13 331.00 523.00
C 330.87 524.61 329.53 527.95 328.00 529.00 Z"/>
</g>
</svg>